<svg width="113" height="15" viewBox="0 0 113 15" fill="none" xmlns="http://www.w3.org/2000/svg">
<g clip-path="url(#clip0_1601_24957)">
<path d="M61.9884 7.28044H59.3993C58.9453 7.28044 58.7183 7.39419 58.7183 7.62281V14.8137H54.3693V7.62253C54.3693 7.39392 54.1339 7.27979 53.6631 7.28016H50.1849L51.0322 5.70215H61.9881V7.28016L61.9884 7.28044Z" fill="#BBBCBF"/>
<path d="M73.5521 14.8137H69.1379L65.9191 12.3009V14.8137H61.9893V7.46729H66.8963C68.315 7.46729 69.5109 7.6012 70.484 7.86904C71.8304 8.24375 72.5041 8.82923 72.5051 9.62549C72.5051 10.1606 72.1816 10.6083 71.5347 10.9685C70.9971 11.2592 70.2877 11.4696 69.4066 11.5997L73.5521 14.8137ZM69.2244 9.62409C69.2244 8.80693 67.6673 8.75395 67.1369 8.75395H65.9191V10.3827H67.1369C67.667 10.3827 69.2244 10.441 69.2244 9.62381" fill="#BBBCBF"/>
<path d="M84.2875 14.8137H80.5889L80.1655 13.7911H75.982L75.5581 14.8137H73.2476L76.7163 7.47401L80.8283 7.46118L84.2875 14.8137ZM79.5787 12.3739L78.0865 8.79079L76.6031 12.3723L79.5787 12.3739Z" fill="#BBBCBF"/>
<path d="M95.3097 11.1429C95.3097 12.1523 94.7611 13.0166 93.664 13.7357C92.5668 14.4548 91.2472 14.8141 89.7051 14.8136H84.8018V7.47217H89.706C91.2475 7.47217 92.5671 7.83154 93.6648 8.55029C94.7625 9.26904 95.3111 10.1333 95.3105 11.1431L95.3097 11.1429ZM92.0721 11.1239C92.0721 9.72823 90.4284 8.75856 89.7077 8.75856H88.2634V13.5275H89.7077C90.4284 13.5275 92.0721 12.519 92.0721 11.1236" fill="#BBBCBF"/>
<path d="M104.256 14.8136L95.8606 14.7835V7.46411L104.256 7.47917V8.76444H99.9247C99.5524 8.76444 99.3654 8.85673 99.3654 9.04046V10.5131H104.256V11.7978H99.3654V13.2551C99.3654 13.4377 99.5527 13.5283 99.9247 13.5283H104.255V14.8133L104.256 14.8136Z" fill="#BBBCBF"/>
<path d="M112.547 12.6786C112.47 14.0679 111.159 14.814 109.994 14.814H104.991V13.5125H108.633C108.797 13.5125 109.212 13.4238 109.212 13.0714C109.212 11.6557 104.991 11.7167 104.991 9.59117C104.991 7.99614 106.505 7.38501 107.353 7.38501H112.546V8.68645H108.912C108.748 8.68645 108.348 8.74389 108.348 9.11609C108.348 10.0409 112.689 10.1058 112.547 12.6789" fill="#BBBCBF"/>
<path d="M45.6382 13.6792L52.7117 0.23877H51.1769L44.7427 12.4781L41.5812 7.33315H37.8307L41.2481 13.7127C41.403 14.0008 41.6925 14.2363 42.1164 14.4192C42.3769 14.5289 42.6507 14.6052 42.931 14.6461H44.0092C44.2838 14.6057 44.5512 14.5277 44.8037 14.4144C45.2055 14.2274 45.4838 13.9824 45.6388 13.6792" fill="#BBBCBF"/>
<path d="M37.408 7.33667H33.9257V14.6917H37.408V7.33667Z" fill="#BBBCBF"/>
<path d="M33.1093 8.67003H30.5108C30.1419 8.67003 29.9598 8.76148 29.9598 8.9466V14.6916H26.4487V8.9466C26.4487 8.76148 26.2583 8.67003 25.8778 8.67003H23.0685L23.7529 7.33179H33.1091V8.67003H33.1093Z" fill="#BBBCBF"/>
<path d="M22.8526 14.6916H18.6552C17.1158 14.6916 15.8003 14.3325 14.7089 13.6143C13.6174 12.8961 13.0714 12.0328 13.0708 11.0243C13.0708 10.0165 13.6168 9.15303 14.7089 8.43391C15.8009 7.71479 17.1163 7.35588 18.6552 7.35718H22.8526L22.1682 8.6419H18.6665C17.9386 8.6419 17.4506 8.94365 17.2024 9.54717C17.0628 9.87522 16.9931 10.3678 16.9933 11.0248C16.9935 11.6819 17.0632 12.1744 17.2024 12.5025C17.4504 13.1058 17.9384 13.4071 18.6665 13.4063H22.8526V14.6913V14.6916Z" fill="#BBBCBF"/>
<path d="M13.6657 14.6916H9.0872L8.56312 13.4261H3.38507L2.85986 14.6916H0L4.2939 5.60657L9.38286 5.5918L13.6657 14.6916ZM7.8373 11.6719L5.99098 7.23673L4.15402 11.6697L7.8373 11.6719Z" fill="#BBBCBF"/>
</g>
<defs>
<clipPath id="clip0_1601_24957">
<rect width="112.551" height="14.5749" fill="white" transform="translate(0 0.23877)"/>
</clipPath>
</defs>
</svg>
