<svg width="90" height="53" viewBox="0 0 90 53" fill="none" xmlns="http://www.w3.org/2000/svg">
<path d="M53.4774 13.9162V10.3916L47.7042 12.0324L27.1641 18.0486L24.3079 18.8994V38.4672L29.1695 37.1303V22.6671V21.8771L53.4774 14.8278V13.9162Z" fill="#8C959D"/>
<path d="M60.7697 17.0155V0L55.9081 1.45847V16.4686L34.4564 22.7279L31.6003 23.5787V28.1364L60.7697 19.5071V17.0155Z" fill="#8C959D"/>
<path d="M19.4463 36.0364H0V2.49146H4.86158V31.8432H19.4463V36.0364Z" fill="#E6E7E8"/>
<path d="M72.9845 36.0364H68.1229V2.49146H90V6.74534H72.9845V16.9547H82.7076V21.2085H72.9845V36.0364Z" fill="#E6E7E8"/>
<path d="M24.3079 0V16.3471L29.1695 14.9494V0H24.3079Z" fill="#E6E7E8"/>
<path d="M60.7698 38.4672V22.0593L55.9082 23.457V38.4672H60.7698Z" fill="#E6E7E8"/>
<path d="M24.8548 51.2899H21.3302L20.6617 52.9306H19.3248L22.4848 45.8813H23.761L26.921 52.9306H25.5233L24.8548 51.2899ZM24.4294 50.2568L23.0925 47.1575L21.7556 50.2568H24.4294Z" fill="#E6E7E8"/>
<path d="M31.7826 52.7483C31.2964 52.566 30.871 52.3837 30.5672 52.1406L30.9926 51.1075C31.2964 51.3506 31.661 51.5329 32.0864 51.6544C32.5118 51.776 32.9372 51.8975 33.3626 51.8975C33.9095 51.8975 34.2741 51.8367 34.5172 51.6544C34.7603 51.4721 34.8818 51.2898 34.8818 50.9859C34.8818 50.8036 34.8211 50.6213 34.6387 50.4998C34.5172 50.3782 34.3349 50.2567 34.0918 50.1959C33.8487 50.1352 33.5449 50.0136 33.1803 49.9529C32.6333 49.8313 32.208 49.7098 31.9041 49.5882C31.6003 49.4667 31.2964 49.2844 31.0533 48.9805C30.8103 48.7375 30.6887 48.3121 30.6887 47.8867C30.6887 47.5221 30.8102 47.1575 30.9926 46.7928C31.1749 46.489 31.5395 46.2459 31.9649 46.0028C32.3903 45.8205 32.9372 45.699 33.5449 45.699C33.9703 45.699 34.3957 45.7597 34.8211 45.8813C35.2464 46.0028 35.6111 46.1244 35.9149 46.3674L35.4895 47.4005C35.1857 47.2182 34.8818 47.0967 34.5172 46.9751C34.1526 46.8536 33.8487 46.8536 33.5449 46.8536C32.998 46.8536 32.6333 46.9144 32.3903 47.0967C32.1472 47.279 32.0256 47.5221 32.0256 47.7651C32.0256 47.9475 32.0864 48.1298 32.2687 48.2513C32.451 48.3728 32.5726 48.4944 32.8156 48.5552C33.0587 48.6159 33.3626 48.7375 33.7272 48.7982C34.2741 48.9198 34.6995 49.0413 35.0034 49.1629C35.368 49.2844 35.6111 49.4667 35.8541 49.7705C36.0972 50.0744 36.2188 50.3782 36.2188 50.8644C36.2188 51.229 36.0972 51.5936 35.9149 51.8975C35.7326 52.2013 35.368 52.4444 34.9426 52.6267C34.5172 52.809 33.9703 52.9306 33.3626 52.9306C32.8157 52.9913 32.2687 52.9306 31.7826 52.7483Z" fill="#E6E7E8"/>
<path d="M41.4449 52.7483C40.9588 52.566 40.5334 52.3837 40.2296 52.1406L40.6549 51.1075C40.9588 51.3506 41.3234 51.5329 41.7488 51.6544C42.1742 51.776 42.5996 51.8975 43.025 51.8975C43.5719 51.8975 43.9365 51.8367 44.1796 51.6544C44.4227 51.4721 44.5442 51.2898 44.5442 50.9859C44.5442 50.8036 44.4834 50.6213 44.3011 50.4998C44.1796 50.3782 43.9973 50.2567 43.7542 50.1959C43.5111 50.1352 43.2073 50.0136 42.8426 49.9529C42.2957 49.8313 41.8703 49.7098 41.5665 49.5882C41.2626 49.4667 40.9588 49.2844 40.7157 48.9805C40.4726 48.7375 40.3511 48.3121 40.3511 47.8867C40.3511 47.5221 40.4726 47.1575 40.6549 46.7928C40.8372 46.4282 41.2019 46.2459 41.6273 46.0028C42.0526 45.8205 42.5996 45.699 43.2073 45.699C43.6327 45.699 44.058 45.7597 44.4834 45.8813C44.9088 46.0028 45.2734 46.1244 45.5773 46.3674L45.1519 47.4005C44.848 47.2182 44.5442 47.0967 44.1796 46.9751C43.815 46.8536 43.5111 46.8536 43.2073 46.8536C42.6603 46.8536 42.2957 46.9144 42.0526 47.0967C41.8096 47.279 41.688 47.5221 41.688 47.7651C41.688 47.9475 41.7488 48.1298 41.9311 48.2513C42.0526 48.3728 42.235 48.4944 42.478 48.5552C42.7211 48.6159 43.025 48.7375 43.3896 48.7982C43.9365 48.9198 44.3619 49.0413 44.6657 49.1629C45.0304 49.2844 45.2734 49.4667 45.5165 49.7705C45.7596 50.0744 45.8811 50.3782 45.8811 50.8644C45.8811 51.229 45.7596 51.5936 45.5773 51.8975C45.395 52.2013 45.0304 52.4444 44.605 52.6267C44.1796 52.809 43.6327 52.9306 43.025 52.9306C42.478 52.9913 41.9919 52.9306 41.4449 52.7483Z" fill="#E6E7E8"/>
<path d="M55.8474 51.776V52.8698H50.5604V45.8206H55.7259V46.9144H51.8974V48.7375H55.3005V49.8314H51.8974V51.776H55.8474V51.776Z" fill="#E6E7E8"/>
<path d="M62.0459 46.9752H59.7366V45.8813H65.7528V46.9752H63.4436V52.9306H62.1067V46.9752H62.0459Z" fill="#E6E7E8"/>
</svg>
