<svg width="836" height="836" viewBox="0 0 836 836" fill="none" xmlns="http://www.w3.org/2000/svg">
<circle cx="418" cy="418" r="418" fill="url(#paint0_radial_1345_12460)"/>
<circle cx="418" cy="418" r="112.5" stroke="white" stroke-width="3"/>
<circle cx="418" cy="418" r="105.5" stroke="white" stroke-width="3"/>
<circle cx="418" cy="418" r="98.5" stroke="white" stroke-width="3"/>
<circle cx="418" cy="418" r="91.5" stroke="white" stroke-width="3"/>
<circle cx="418" cy="418" r="84.5" stroke="white" stroke-width="3"/>
<circle cx="418" cy="418" r="77.5" stroke="white" stroke-width="3"/>
<circle cx="418" cy="418" r="70.5" stroke="white" stroke-width="3"/>
<circle cx="418" cy="418" r="63.5" stroke="white" stroke-width="3"/>
<circle cx="418" cy="418" r="56.5" stroke="white" stroke-width="3"/>
<circle cx="418" cy="418" r="49.5" stroke="white" stroke-width="3"/>
<circle cx="418" cy="418" r="42.5" stroke="white" stroke-width="3"/>
<circle cx="418" cy="418" r="35.5" stroke="white" stroke-width="3"/>
<circle cx="418" cy="418" r="28.5" stroke="white" stroke-width="3"/>
<circle cx="418" cy="418" r="21.5" stroke="white" stroke-width="3"/>
<circle cx="418" cy="418" r="14.5" stroke="white" stroke-width="3"/>
<circle cx="418" cy="418" r="8.5" stroke="white" stroke-width="3"/>
<circle cx="418" cy="418" r="119.5" stroke="white" stroke-width="3"/>
<circle cx="418" cy="418" r="126.5" stroke="white" stroke-width="3"/>
<circle cx="418" cy="418" r="133.5" stroke="white" stroke-width="3"/>
<circle cx="418" cy="418" r="140.5" stroke="white" stroke-width="3"/>
<circle cx="418" cy="418" r="147.5" stroke="white" stroke-width="3"/>
<circle cx="418" cy="418" r="154.5" stroke="white" stroke-width="3"/>
<circle cx="418" cy="418" r="161.5" stroke="white" stroke-width="3"/>
<circle cx="418" cy="418" r="168.5" stroke="white" stroke-width="3"/>
<circle cx="418" cy="418" r="175.5" stroke="white" stroke-width="3"/>
<circle cx="418" cy="418" r="182.5" stroke="white" stroke-width="3"/>
<circle cx="418" cy="418" r="189.5" stroke="white" stroke-width="3"/>
<circle cx="418" cy="418" r="196.5" stroke="white" stroke-width="3"/>
<circle cx="418" cy="418" r="203.5" stroke="white" stroke-width="3"/>
<circle cx="418" cy="418" r="210.5" stroke="white" stroke-width="3"/>
<circle cx="418" cy="418" r="217.5" stroke="white" stroke-width="3"/>
<circle cx="418" cy="418" r="224.5" stroke="white" stroke-width="3"/>
<circle cx="418" cy="418" r="231.5" stroke="white" stroke-width="3"/>
<circle cx="418" cy="418" r="238.5" stroke="white" stroke-width="3"/>
<circle cx="418" cy="418" r="245.5" stroke="white" stroke-width="3"/>
<circle cx="418" cy="418" r="252.5" stroke="white" stroke-width="3"/>
<circle cx="418" cy="418" r="259.5" stroke="white" stroke-width="3"/>
<circle cx="418" cy="418" r="266.5" stroke="white" stroke-width="3"/>
<circle cx="418" cy="418" r="273.5" stroke="white" stroke-width="3"/>
<circle cx="418" cy="418" r="280.5" stroke="white" stroke-width="3"/>
<circle cx="418" cy="418" r="287.5" stroke="white" stroke-width="3"/>
<circle cx="418" cy="418" r="294.5" stroke="white" stroke-width="3"/>
<circle cx="418" cy="418" r="301.5" stroke="white" stroke-width="3"/>
<circle cx="418" cy="418" r="308.5" stroke="white" stroke-width="3"/>
<circle cx="418" cy="418" r="315.5" stroke="white" stroke-width="3"/>
<circle cx="418" cy="418" r="322.5" stroke="white" stroke-width="3"/>
<circle cx="418" cy="418" r="329.5" stroke="white" stroke-width="3"/>
<circle cx="418" cy="418" r="336.5" stroke="white" stroke-width="3"/>
<circle cx="418" cy="418" r="343.5" stroke="white" stroke-width="3"/>
<circle cx="418" cy="418" r="350.5" stroke="white" stroke-width="3"/>
<circle cx="418" cy="418" r="357.5" stroke="white" stroke-width="3"/>
<circle cx="418" cy="418" r="364.5" stroke="white" stroke-width="3"/>
<circle cx="418" cy="418" r="371.5" stroke="white" stroke-width="3"/>
<circle cx="418" cy="418" r="378.5" stroke="white" stroke-width="3"/>
<circle cx="418" cy="418" r="385.5" stroke="white" stroke-width="3"/>
<circle cx="418" cy="418" r="392.5" stroke="white" stroke-width="3"/>
<circle cx="418" cy="418" r="399.5" stroke="white" stroke-width="3"/>
<circle cx="418" cy="418" r="406.5" stroke="white" stroke-width="3"/>
<circle cx="418" cy="418" r="413.5" stroke="white" stroke-width="3"/>
<defs>
<radialGradient id="paint0_radial_1345_12460" cx="0" cy="0" r="1" gradientUnits="userSpaceOnUse" gradientTransform="translate(418 418) rotate(90) scale(336.5)">
<stop stop-color="#D5D6D9"/>
<stop offset="1" stop-color="#EDEFF2" stop-opacity="0"/>
</radialGradient>
</defs>
</svg>
