<svg width="150" height="41" viewBox="0 0 150 41" fill="none" xmlns="http://www.w3.org/2000/svg">
<g opacity="0.8">
<rect opacity="0.5" x="0.5" y="0.5" width="149" height="40" rx="3.5" stroke="white"/>
<mask id="mask0_850_8703" style="mask-type:alpha" maskUnits="userSpaceOnUse" x="33" y="10" width="82" height="21">
<path d="M33.9311 30.4642H114.848V10.7261H33.9311V30.4642Z" fill="#131750"/>
</mask>
<g mask="url(#mask0_850_8703)">
<path fill-rule="evenodd" clip-rule="evenodd" d="M45.9631 19.9592C45.9419 17.7688 47.7943 16.7024 47.8789 16.6523C46.8303 15.1552 45.2039 14.9503 44.6339 14.935C43.268 14.7943 41.9455 15.7342 41.2498 15.7342C40.5395 15.7342 39.4686 14.9481 38.3153 14.971C36.8303 14.9939 35.4399 15.8367 34.6774 17.144C33.1055 19.8109 34.2788 23.7296 35.7839 25.8851C36.5387 26.9406 37.4192 28.1192 38.5714 28.0778C39.6991 28.032 40.121 27.3734 41.4824 27.3734C42.8316 27.3734 43.2257 28.0778 44.4024 28.0516C45.6124 28.032 46.375 26.9907 47.1019 25.9255C47.9735 24.7152 48.322 23.5246 48.3364 23.4624C48.3075 23.4537 45.9865 22.5858 45.9631 19.9592Z" fill="white"/>
<path fill-rule="evenodd" clip-rule="evenodd" d="M43.7419 13.5176C44.3475 12.774 44.7627 11.7633 44.647 10.7373C43.7697 10.7755 42.6721 11.3326 42.0398 12.0599C41.481 12.6999 40.9812 13.7499 41.1103 14.7366C42.0955 14.8086 43.1085 14.2492 43.7419 13.5176Z" fill="white"/>
<path fill-rule="evenodd" clip-rule="evenodd" d="M56.769 24.173H59.8192L58.3164 19.8346H58.2741L56.769 24.173ZM60.22 25.4062H56.3705L55.4466 28.0797H53.8168L57.4615 18.1904H59.1558L62.8004 28.0797H61.1428L60.22 25.4062Z" fill="white"/>
<path fill-rule="evenodd" clip-rule="evenodd" d="M69.1208 24.4739C69.1208 23.014 68.3505 22.0545 67.175 22.0545C66.0206 22.0545 65.2447 23.0347 65.2447 24.4739C65.2447 25.9273 66.0206 26.8999 67.175 26.8999C68.3505 26.8999 69.1208 25.9469 69.1208 24.4739ZM70.6738 24.4739C70.6738 26.7145 69.4492 28.1538 67.6013 28.1538C66.5527 28.1538 65.7189 27.6947 65.2858 26.8933H65.2502V30.4642H63.7396V20.8682H65.2012V22.0676H65.2302C65.6499 21.2934 66.546 20.793 67.5735 20.793C69.4426 20.793 70.6738 22.2398 70.6738 24.4739Z" fill="white"/>
<path fill-rule="evenodd" clip-rule="evenodd" d="M77.2231 24.4739C77.2231 23.014 76.4528 22.0545 75.2772 22.0545C74.1228 22.0545 73.3469 23.0347 73.3469 24.4739C73.3469 25.9273 74.1228 26.8999 75.2772 26.8999C76.4528 26.8999 77.2231 25.9469 77.2231 24.4739ZM78.776 24.4739C78.776 26.7145 77.5515 28.1538 75.7047 28.1538C74.6549 28.1538 73.8211 27.6947 73.3881 26.8933H73.3525V30.4642H71.8419V20.8682H73.3035V22.0676H73.3324C73.7521 21.2934 74.6483 20.793 75.6758 20.793C77.5448 20.793 78.776 22.2398 78.776 24.4739Z" fill="white"/>
<path fill-rule="evenodd" clip-rule="evenodd" d="M84.1307 25.3235C84.2432 26.3037 85.2161 26.9481 86.5453 26.9481C87.8188 26.9481 88.7349 26.3037 88.7349 25.4195C88.7349 24.6519 88.1828 24.1929 86.8737 23.8778L85.5645 23.5692C83.711 23.1298 82.8505 22.2804 82.8505 20.9023C82.8505 19.1959 84.3689 18.0249 86.5241 18.0249C88.657 18.0249 90.1209 19.1959 90.1699 20.9023H88.6448C88.5535 19.9166 87.7208 19.3202 86.503 19.3202C85.2851 19.3202 84.4524 19.9232 84.4524 20.8009C84.4524 21.4998 84.9857 21.9108 86.287 22.2259L87.3991 22.4931C89.4708 22.9728 90.3302 23.7884 90.3302 25.2341C90.3302 27.0844 88.8262 28.2434 86.4328 28.2434C84.1942 28.2434 82.6813 27.1128 82.5845 25.3235H84.1307Z" fill="white"/>
<path fill-rule="evenodd" clip-rule="evenodd" d="M93.5919 19.1624V20.8687H94.9923V22.0408H93.5919V26.0161C93.5919 26.6333 93.8724 26.9211 94.488 26.9211C94.6416 26.9211 94.8876 26.9004 94.9845 26.8862V28.0518C94.8175 28.0932 94.4813 28.1205 94.1451 28.1205C92.6545 28.1205 92.0746 27.572 92.0746 26.1732V22.0408H91.0036V20.8687H92.0746V19.1624H93.5919Z" fill="white"/>
<path fill-rule="evenodd" clip-rule="evenodd" d="M101.246 24.4743C101.246 22.9184 100.519 21.9993 99.2937 21.9993C98.0691 21.9993 97.3422 22.9249 97.3422 24.4743C97.3422 26.0367 98.0691 26.9482 99.2937 26.9482C100.519 26.9482 101.246 26.0367 101.246 24.4743ZM95.8026 24.4743C95.8026 22.2053 97.1674 20.7803 99.2937 20.7803C101.429 20.7803 102.787 22.2053 102.787 24.4743C102.787 26.7487 101.435 28.1683 99.2937 28.1683C97.153 28.1683 95.8026 26.7487 95.8026 24.4743Z" fill="white"/>
<path fill-rule="evenodd" clip-rule="evenodd" d="M104.033 20.8687H105.473V22.0953H105.508C105.739 21.2797 106.411 20.7935 107.279 20.7935C107.496 20.7935 107.677 20.8218 107.797 20.848V22.2327C107.677 22.1847 107.411 22.1433 107.117 22.1433C106.144 22.1433 105.543 22.7877 105.543 23.8017V28.079H104.033V20.8687Z" fill="white"/>
<path fill-rule="evenodd" clip-rule="evenodd" d="M109.655 23.8092H113.337C113.301 22.7058 112.581 21.9796 111.531 21.9796C110.488 21.9796 109.732 22.72 109.655 23.8092ZM114.764 25.9615C114.56 27.2699 113.259 28.1683 111.593 28.1683C109.451 28.1683 108.123 26.7629 108.123 24.5092C108.123 22.2468 109.459 20.7803 111.531 20.7803C113.567 20.7803 114.848 22.1508 114.848 24.3369V24.8439H109.648V24.9333C109.648 26.1665 110.439 26.9755 111.628 26.9755C112.468 26.9755 113.126 26.5852 113.329 25.9615H114.764Z" fill="white"/>
</g>
<path d="M56.1875 15.0001C57.7386 15.0001 58.6136 14.0356 58.6136 12.4447C58.6136 10.8637 57.7386 9.90918 56.2571 9.90918H54.6165V15.0001H56.1875ZM55.233 14.4532V10.4561H56.2173C57.4105 10.4561 58.0171 11.2117 58.0171 12.4447C58.0171 13.6876 57.4105 14.4532 56.1477 14.4532H55.233Z" fill="white"/>
<path d="M61.2593 15.0796C62.2934 15.0796 62.9894 14.2941 62.9894 13.1109C62.9894 11.9177 62.2934 11.1322 61.2593 11.1322C60.2252 11.1322 59.5292 11.9177 59.5292 13.1109C59.5292 14.2941 60.2252 15.0796 61.2593 15.0796ZM61.2593 14.5526C60.4738 14.5526 60.1159 13.8765 60.1159 13.1109C60.1159 12.3453 60.4738 11.6592 61.2593 11.6592C62.0448 11.6592 62.4028 12.3453 62.4028 13.1109C62.4028 13.8765 62.0448 14.5526 61.2593 14.5526Z" fill="white"/>
<path d="M64.7601 15.0001H65.3368L66.1721 12.0668H66.2317L67.0669 15.0001H67.6436L68.807 11.1819H68.1905L67.3652 14.0953H67.3255L66.5201 11.1819H65.8936L65.0783 14.1052H65.0385L64.2132 11.1819H63.5968L64.7601 15.0001Z" fill="white"/>
<path d="M70.3092 12.7032C70.3092 12.037 70.7219 11.6592 71.2836 11.6592C71.828 11.6592 72.1586 12.0146 72.1586 12.6137V15.0001H72.7453V12.574C72.7453 11.5995 72.2258 11.1322 71.4527 11.1322C70.876 11.1322 70.518 11.3907 70.339 11.7785H70.2893V11.1819H69.7226V15.0001H70.3092V12.7032Z" fill="white"/>
<path d="M74.5439 9.90918H73.9573V15.0001H74.5439V9.90918Z" fill="white"/>
<path d="M77.3096 15.0796C78.3437 15.0796 79.0397 14.2941 79.0397 13.1109C79.0397 11.9177 78.3437 11.1322 77.3096 11.1322C76.2755 11.1322 75.5794 11.9177 75.5794 13.1109C75.5794 14.2941 76.2755 15.0796 77.3096 15.0796ZM77.3096 14.5526C76.524 14.5526 76.1661 13.8765 76.1661 13.1109C76.1661 12.3453 76.524 11.6592 77.3096 11.6592C78.0951 11.6592 78.453 12.3453 78.453 13.1109C78.453 13.8765 78.0951 14.5526 77.3096 14.5526Z" fill="white"/>
<path d="M81.1988 15.0896C81.865 15.0896 82.213 14.7316 82.3323 14.483H82.3621V15.0001H82.9488V12.4845C82.9488 11.2714 82.024 11.1322 81.5368 11.1322C80.9601 11.1322 80.3039 11.3311 80.0056 12.0271L80.5624 12.2259C80.6917 11.9475 80.9974 11.6492 81.5567 11.6492C82.0961 11.6492 82.3621 11.9351 82.3621 12.4248V12.4447C82.3621 12.7281 82.0738 12.7032 81.3777 12.7927C80.6693 12.8847 79.8962 13.0413 79.8962 13.9163C79.8962 14.662 80.4729 15.0896 81.1988 15.0896ZM81.2882 14.5626C80.8209 14.5626 80.4829 14.3538 80.4829 13.9461C80.4829 13.4987 80.8905 13.3595 81.3479 13.2998C81.5965 13.27 82.2627 13.2004 82.3621 13.0811V13.618C82.3621 14.0953 81.9843 14.5626 81.2882 14.5626Z" fill="white"/>
<path d="M85.6013 15.0796C86.3371 15.0796 86.5857 14.6222 86.7149 14.4134H86.7845V15.0001H87.3513V9.90918H86.7646V11.7884H86.7149C86.5857 11.5896 86.357 11.1322 85.6112 11.1322C84.6467 11.1322 83.9805 11.8978 83.9805 13.1009C83.9805 14.314 84.6467 15.0796 85.6013 15.0796ZM85.6808 14.5526C84.945 14.5526 84.5672 13.9063 84.5672 13.091C84.5672 12.2856 84.9351 11.6592 85.6808 11.6592C86.3967 11.6592 86.7746 12.2359 86.7746 13.091C86.7746 13.9561 86.3868 14.5526 85.6808 14.5526Z" fill="white"/>
<path d="M92.3071 15.0796C93.3412 15.0796 94.0372 14.2941 94.0372 13.1109C94.0372 11.9177 93.3412 11.1322 92.3071 11.1322C91.273 11.1322 90.5769 11.9177 90.5769 13.1109C90.5769 14.2941 91.273 15.0796 92.3071 15.0796ZM92.3071 14.5526C91.5215 14.5526 91.1636 13.8765 91.1636 13.1109C91.1636 12.3453 91.5215 11.6592 92.3071 11.6592C93.0926 11.6592 93.4505 12.3453 93.4505 13.1109C93.4505 13.8765 93.0926 14.5526 92.3071 14.5526Z" fill="white"/>
<path d="M95.6593 12.7032C95.6593 12.037 96.072 11.6592 96.6338 11.6592C97.1782 11.6592 97.5088 12.0146 97.5088 12.6137V15.0001H98.0954V12.574C98.0954 11.5995 97.5759 11.1322 96.8028 11.1322C96.2261 11.1322 95.8681 11.3907 95.6892 11.7785H95.6394V11.1819H95.0727V15.0001H95.6593V12.7032Z" fill="white"/>
<path d="M103.077 11.1819H102.261V10.2671H101.675V11.1819H101.098V11.6791H101.675V14.0654C101.675 14.7316 102.212 15.0498 102.709 15.0498C102.928 15.0498 103.067 15.01 103.146 14.9802L103.027 14.4532C102.977 14.4632 102.898 14.483 102.768 14.483C102.51 14.483 102.261 14.4035 102.261 13.9063V11.6791H103.077V11.1819Z" fill="white"/>
<path d="M104.768 12.7032C104.768 12.037 105.193 11.6592 105.772 11.6592C106.324 11.6592 106.657 12.0072 106.657 12.6137V15.0001H107.244V12.574C107.244 11.5921 106.722 11.1322 105.941 11.1322C105.34 11.1322 104.996 11.3833 104.818 11.7785H104.768V9.90918H104.181V15.0001H104.768V12.7032Z" fill="white"/>
<path d="M110.058 15.0796C110.833 15.0796 111.4 14.6919 111.579 14.1151L111.012 13.9561C110.863 14.3538 110.518 14.5526 110.058 14.5526C109.369 14.5526 108.894 14.1077 108.867 13.2899H111.639V13.0413C111.639 11.6194 110.794 11.1322 109.998 11.1322C108.964 11.1322 108.278 11.9475 108.278 13.1208C108.278 14.2941 108.954 15.0796 110.058 15.0796ZM108.867 12.7828C108.907 12.1887 109.327 11.6592 109.998 11.6592C110.634 11.6592 111.042 12.1365 111.042 12.7828H108.867Z" fill="white"/>
</g>
</svg>
