<svg width="150" height="41" viewBox="0 0 150 41" fill="none" xmlns="http://www.w3.org/2000/svg">
<g opacity="0.8">
<rect opacity="0.5" x="0.5" y="0.5" width="149" height="40" rx="3.5" stroke="white"/>
<path fill-rule="evenodd" clip-rule="evenodd" d="M25.3561 30.8105C25.4328 30.8053 25.5122 30.7938 25.585 30.7528L37.7799 23.9317L35.1181 21.353L25.3561 30.8105Z" fill="white"/>
<path fill-rule="evenodd" clip-rule="evenodd" d="M24.7844 11.3416V30.118L34.475 20.7298L24.7844 11.3416Z" fill="white"/>
<path fill-rule="evenodd" clip-rule="evenodd" d="M42.6546 20.3091L38.5601 18.0188L35.7647 20.727L38.5998 23.4736L42.6546 21.205C43.0105 21.0064 43.0105 20.5078 42.6546 20.3091Z" fill="white"/>
<path fill-rule="evenodd" clip-rule="evenodd" d="M37.7444 17.5628L25.5852 10.761C25.5389 10.7354 25.49 10.7366 25.441 10.7251L35.1224 20.1031L37.7444 17.5628Z" fill="white"/>
<mask id="mask0_850_8675" style="mask-type:alpha" maskUnits="userSpaceOnUse" x="49" y="9" width="71" height="24">
<path d="M49.7478 9.14819H119.45V32.0864H49.7478V9.14819Z" fill="#131750"/>
</mask>
<g mask="url(#mask0_850_8675)">
<path fill-rule="evenodd" clip-rule="evenodd" d="M103.926 28.8041H105.46V18.7362H103.926V28.8041ZM117.744 22.3631L115.985 26.7282H115.932L114.108 22.3631H112.455L115.193 28.4634L113.631 31.8568H115.231L119.451 22.3631H117.744ZM109.043 27.6608C108.54 27.6608 107.839 27.4147 107.839 26.8052C107.839 26.0291 108.713 25.7312 109.467 25.7312C110.141 25.7312 110.458 25.8738 110.867 26.0669C110.749 26.9995 109.929 27.6608 109.043 27.6608ZM109.228 22.1435C108.118 22.1435 106.967 22.6218 106.49 23.6844L107.854 24.2409C108.144 23.6844 108.686 23.5026 109.254 23.5026C110.048 23.5026 110.854 23.9696 110.867 24.7987V24.9021C110.59 24.7469 109.995 24.5135 109.267 24.5135C107.801 24.5135 106.305 25.3034 106.305 26.7799C106.305 28.1264 107.51 28.9946 108.859 28.9946C109.889 28.9946 110.458 28.5416 110.814 28.0103H110.867V28.7877H112.349V24.9274C112.349 23.1405 110.987 22.1435 109.228 22.1435ZM99.7468 23.5897H97.5655V20.1383H99.7468C100.894 20.1383 101.545 21.0683 101.545 21.8634C101.545 22.6432 100.894 23.5897 99.7468 23.5897ZM99.7069 18.7362H96.031V28.8041H97.5655V24.9892H99.7069C101.409 24.9892 103.079 23.7841 103.079 21.8634C103.079 19.9427 101.409 18.7362 99.7069 18.7362ZM79.6614 27.6633C78.6023 27.6633 77.7146 26.7938 77.7146 25.6C77.7146 24.3936 78.6023 23.5102 79.6614 23.5102C80.7076 23.5102 81.5283 24.3936 81.5283 25.6C81.5283 26.7938 80.7076 27.6633 79.6614 27.6633ZM81.4227 22.9272H81.3698C81.0258 22.5246 80.3636 22.1612 79.5287 22.1612C77.7803 22.1612 76.1775 23.6667 76.1775 25.6C76.1775 27.5194 77.7803 29.0111 79.5287 29.0111C80.3636 29.0111 81.0258 28.6489 81.3698 28.2337H81.4227V28.7259C81.4227 30.037 80.7076 30.7374 79.5557 30.7374C78.6152 30.7374 78.0328 30.0761 77.7931 29.5171L76.4558 30.0623C76.8397 30.9709 77.8601 32.0864 79.5557 32.0864C81.357 32.0864 82.8799 31.0491 82.8799 28.5189V22.3694H81.4227V22.9272ZM83.939 28.8041H85.4761V18.7362H83.939V28.8041ZM87.7412 25.4826C87.7012 24.1601 88.7874 23.485 89.5695 23.485C90.1789 23.485 90.6955 23.7828 90.8669 24.2119L87.7412 25.4826ZM92.5097 24.3418C92.2185 23.5758 91.3307 22.1612 89.5166 22.1612C87.7154 22.1612 86.2182 23.5493 86.2182 25.5874C86.2182 27.5068 87.7012 29.0111 89.688 29.0111C91.2921 29.0111 92.2185 28.052 92.6024 27.4942L91.4106 26.7156C91.0138 27.286 90.4701 27.6633 89.688 27.6633C88.9072 27.6633 88.3506 27.3125 87.9924 26.6247L92.6681 24.7305L92.5097 24.3418ZM55.2584 23.2124V24.6662H58.808C58.7024 25.4826 58.4241 26.0795 58.0002 26.4947C57.4835 27.0008 56.6757 27.5585 55.2584 27.5585C53.0719 27.5585 51.3635 25.8335 51.3635 23.6932C51.3635 21.5517 53.0719 19.8266 55.2584 19.8266C56.4373 19.8266 57.298 20.2809 57.9332 20.8639L58.9794 19.8392C58.093 19.0088 56.914 18.3728 55.2584 18.3728C52.2654 18.3728 49.7478 20.7604 49.7478 23.6932C49.7478 26.6247 52.2654 29.0111 55.2584 29.0111C56.8741 29.0111 58.093 28.4924 59.0464 27.5194C60.0269 26.5603 60.331 25.2101 60.331 24.121C60.331 23.7828 60.3052 23.4723 60.2511 23.2124H55.2584ZM64.3676 27.6633C63.3073 27.6633 62.3938 26.8064 62.3938 25.5874C62.3938 24.3545 63.3073 23.5102 64.3676 23.5102C65.4267 23.5102 66.3402 24.3545 66.3402 25.5874C66.3402 26.8064 65.4267 27.6633 64.3676 27.6633ZM64.3676 22.1612C62.4337 22.1612 60.8567 23.6011 60.8567 25.5874C60.8567 27.5585 62.4337 29.0111 64.3676 29.0111C66.3016 29.0111 67.8773 27.5585 67.8773 25.5874C67.8773 23.6011 66.3016 22.1612 64.3676 22.1612ZM72.0235 27.6633C70.9644 27.6633 70.0509 26.8064 70.0509 25.5874C70.0509 24.3545 70.9644 23.5102 72.0235 23.5102C73.0839 23.5102 73.9974 24.3545 73.9974 25.5874C73.9974 26.8064 73.0839 27.6633 72.0235 27.6633ZM72.0235 22.1612C70.0896 22.1612 68.5138 23.6011 68.5138 25.5874C68.5138 27.5585 70.0896 29.0111 72.0235 29.0111C73.9575 29.0111 75.5345 27.5585 75.5345 25.5874C75.5345 23.6011 73.9575 22.1612 72.0235 22.1612Z" fill="white"/>
</g>
<path d="M54.0966 11.5001H54.733C54.544 10.5157 53.7188 9.8396 52.6449 9.8396C51.3398 9.8396 50.4176 10.8439 50.4176 12.4547C50.4176 14.0655 51.3324 15.0697 52.6847 15.0697C53.8977 15.0697 54.7628 14.2618 54.7628 13.0015V12.4547H52.8239V13.0015H54.1662C54.1488 13.9163 53.5472 14.493 52.6847 14.493C51.7401 14.493 51.0142 13.7771 51.0142 12.4547C51.0142 11.1322 51.7401 10.4163 52.6449 10.4163C53.3807 10.4163 53.8803 10.8314 54.0966 11.5001Z" fill="white"/>
<path d="M56.1686 15.0001H59.2808V14.4532H56.7851V12.7231H59.082V12.1762H56.7851V10.4561H59.2411V9.9092H56.1686V15.0001Z" fill="white"/>
<path d="M60.4238 10.4561H62.0247V15.0001H62.6411V10.4561H64.242V9.9092H60.4238V10.4561Z" fill="white"/>
<path d="M68.4787 9.9092H67.8622V15.0001H68.4787V9.9092Z" fill="white"/>
<path d="M69.7863 10.4561H71.3872V15.0001H72.0036V10.4561H73.6045V9.9092H69.7863V10.4561Z" fill="white"/>
<path d="M81.5201 12.4547C81.5201 10.8439 80.5755 9.8396 79.273 9.8396C77.9704 9.8396 77.0258 10.8439 77.0258 12.4547C77.0258 14.0655 77.9704 15.0697 79.273 15.0697C80.5755 15.0697 81.5201 14.0655 81.5201 12.4547ZM80.9235 12.4547C80.9235 13.7771 80.1977 14.493 79.273 14.493C78.3483 14.493 77.6224 13.7771 77.6224 12.4547C77.6224 11.1322 78.3483 10.4163 79.273 10.4163C80.1977 10.4163 80.9235 11.1322 80.9235 12.4547Z" fill="white"/>
<path d="M86.9436 9.9092H86.3371V13.9163H86.2874L83.5033 9.9092H82.9067V15.0001H83.5232V11.003H83.5729L86.3471 15.0001H86.9436V9.9092Z" fill="white"/>
</g>
</svg>
