<svg width="20" height="20" viewBox="0 0 20 20" fill="none" xmlns="http://www.w3.org/2000/svg">
<path d="M8.33333 3C8.33333 2.72386 8.10948 2.5 7.83333 2.5H3C2.72386 2.5 2.5 2.72386 2.5 3V7.83333C2.5 8.10948 2.72386 8.33333 3 8.33333H7.83333C8.10948 8.33333 8.33333 8.10948 8.33333 7.83333V3Z" stroke="white" stroke-width="1.5"/>
<path d="M8.33333 12.5C8.33333 12.2239 8.10948 12 7.83333 12H3C2.72386 12 2.5 12.2239 2.5 12.5V17.3333C2.5 17.6095 2.72386 17.8333 3 17.8333H7.83333C8.10948 17.8333 8.33333 17.6095 8.33333 17.3333V12.5Z" stroke="white" stroke-width="1.5"/>
<path d="M17.8333 12.5C17.8333 12.2239 17.6095 12 17.3333 12H12.5C12.2239 12 12 12.2239 12 12.5V17.3333C12 17.6095 12.2239 17.8333 12.5 17.8333H17.3333C17.6095 17.8333 17.8333 17.6095 17.8333 17.3333V12.5Z" stroke="white" stroke-width="1.5"/>
<path d="M17.8333 3C17.8333 2.72386 17.6095 2.5 17.3333 2.5H12.5C12.2239 2.5 12 2.72386 12 3V7.83333C12 8.10948 12.2239 8.33333 12.5 8.33333H17.3333C17.6095 8.33333 17.8333 8.10948 17.8333 7.83333V3Z" stroke="white" stroke-width="1.5"/>
</svg>
