<svg width="25" height="19" viewBox="0 0 25 19" fill="none" xmlns="http://www.w3.org/2000/svg">
<path d="M4.4763 5.19196C4.5086 5.16014 4.53788 5.13183 4.5528 5.11819C4.57263 5.09836 4.59264 5.08081 4.61135 5.06588L6.74631 2.92783L7.06731 2.60683C7.14422 2.52991 7.20627 2.46949 7.34583 2.33474C7.34583 2.33474 7.38313 2.29737 7.39145 2.28866C7.42596 2.25233 7.4468 2.23048 7.46042 2.21686C7.75111 1.92581 8.085 1.68138 8.45936 1.4876C8.82454 1.30591 9.21399 1.17775 9.62515 1.10549C9.99717 1.04586 10.3731 1.01377 10.7318 1.00994C10.8741 1.00425 10.9846 1.00315 11.2186 1.00323C11.3804 1.00054 11.5088 1 11.7924 1H18.1149C18.257 1 18.3199 1.00007 18.3992 1.0004C18.5045 1.00084 18.5981 1.00172 18.6782 1.00315C18.9226 1.00315 19.0331 1.00425 19.1579 1.00949C19.5352 1.01406 19.9118 1.04611 20.2954 1.1072C20.6954 1.17805 21.083 1.30643 21.45 1.49025C21.8193 1.67834 22.1563 1.92411 22.4465 2.21651C22.7376 2.50754 22.9814 2.84231 23.1724 3.21526C23.3541 3.58044 23.4822 3.96989 23.5546 4.38153C23.6139 4.75327 23.6459 5.12884 23.6501 5.48775C23.6531 5.56356 23.6549 5.6397 23.6564 5.74116L23.6575 5.82162C23.6585 5.89907 23.659 5.93365 23.66 5.98811L23.6599 12.9775C23.659 13.0203 23.6585 13.055 23.6575 13.1339C23.6553 13.2999 23.6539 13.3749 23.6505 13.4533C23.6465 13.8346 23.6132 14.215 23.5503 14.5941C23.4812 14.9997 23.3526 15.3928 23.1656 15.7673C22.9761 16.1362 22.7306 16.4735 22.4383 16.767C22.1444 17.0625 21.8053 17.3092 21.4338 17.4979C21.0651 17.6853 20.6701 17.8157 20.2595 17.8851C19.8849 17.9468 19.5063 17.9811 19.128 17.9878C19.0584 17.9891 19.0039 17.9898 18.8827 17.991C18.7655 17.9922 18.7138 17.9928 18.6373 17.9942L11.2165 17.9941C11.1537 17.9928 11.1027 17.9922 10.9867 17.991C10.8666 17.9898 10.8128 17.9891 10.7479 17.9878C10.3711 17.9824 9.9952 17.9492 9.6157 17.8871C9.21399 17.8164 8.82454 17.6883 8.45028 17.502C8.085 17.3128 7.75112 17.0684 7.46069 16.7776C7.4468 16.7637 7.42596 16.7419 7.39004 16.7041C7.38313 16.6968 7.36064 16.674 7.34583 16.6595C7.20627 16.5247 7.14422 16.4643 7.06731 16.3874C7.06731 16.3874 4.57693 13.8986 4.56648 13.8893C4.50807 13.8343 4.44989 13.7764 4.39449 13.718C4.3425 13.6684 4.29763 13.624 4.20626 13.5326L2.25229 11.5755L2.06661 11.3898C2.01607 11.3393 1.97897 11.3005 1.91629 11.2332C1.75076 11.0705 1.59424 10.8989 1.44742 10.7192C1.3107 10.5735 1.20085 10.4046 1.12304 10.2203L1.10408 10.1694C0.962538 9.73237 0.962538 9.26182 1.12144 8.77771C1.19862 8.59153 1.30913 8.42111 1.44745 8.27479C1.59414 8.09374 1.75067 7.92223 1.89913 7.77856C1.97897 7.69374 2.01607 7.65492 2.06661 7.60438C2.15718 7.51381 2.19616 7.47433 2.25229 7.41556L4.39544 5.2724C4.43417 5.23367 4.45289 5.21502 4.4763 5.19196Z" fill="#081326"/>
<path d="M4.5528 5.11819L4.89024 5.48715L4.89847 5.47963L4.90635 5.47175L4.5528 5.11819ZM4.4763 5.19196L4.82718 5.54816L4.82718 5.54816L4.4763 5.19196ZM4.39544 5.2724L4.749 5.62595L4.74901 5.62594L4.39544 5.2724ZM2.25229 7.41556L1.89864 7.06191L1.89066 7.07026L2.25229 7.41556ZM2.06661 7.60438L1.71305 7.25083L1.71305 7.25083L2.06661 7.60438ZM1.89913 7.77856L2.24684 8.13787L2.25523 8.12975L2.26323 8.12125L1.89913 7.77856ZM1.44745 8.27479L1.8108 8.61826L1.82392 8.60438L1.83594 8.58955L1.44745 8.27479ZM1.12144 8.77771L0.659557 8.58623L0.652293 8.60375L0.646377 8.62177L1.12144 8.77771ZM1.10408 10.1694L0.628412 10.3235L0.631738 10.3337L0.635505 10.3438L1.10408 10.1694ZM1.12304 10.2203L0.654465 10.3948L0.658232 10.4049L0.662433 10.4148L1.12304 10.2203ZM1.44742 10.7192L1.83464 10.4029L1.8238 10.3896L1.81208 10.3771L1.44742 10.7192ZM1.91629 11.2332L2.28217 10.8924L2.27464 10.8843L2.26676 10.8766L1.91629 11.2332ZM2.06661 11.3898L2.42016 11.0363L2.42016 11.0363L2.06661 11.3898ZM2.25229 11.5755L2.60612 11.2222L2.60584 11.2219L2.25229 11.5755ZM4.20626 13.5326L3.85242 13.8859L3.85271 13.8862L4.20626 13.5326ZM4.39449 13.718L4.75712 13.3738L4.74863 13.3648L4.73972 13.3563L4.39449 13.718ZM4.56648 13.8893L4.22367 14.2535L4.23385 14.2626L4.56648 13.8893ZM7.06731 16.3874L7.42086 16.0338L7.42075 16.0337L7.06731 16.3874ZM7.34583 16.6595L7.69601 16.3025L7.69313 16.2998L7.34583 16.6595ZM7.39004 16.7041L7.75253 16.3597L7.75159 16.3587L7.39004 16.7041ZM7.46069 16.7776L7.81446 16.4243L7.81424 16.424L7.46069 16.7776ZM8.45028 17.502L8.22031 17.946L8.22747 17.9496L8.45028 17.502ZM9.6157 17.8871L9.52906 18.3796L9.53502 18.3806L9.6157 17.8871ZM10.7479 17.9878L10.758 17.4879L10.7551 17.4879L10.7479 17.9878ZM10.9867 17.991L10.9817 18.491L10.9867 17.991ZM11.2165 17.9941L11.2065 18.4941H11.2165L11.2165 17.9941ZM18.6373 17.9942L18.6373 18.4943L18.6463 18.4941L18.6373 17.9942ZM18.8827 17.991L18.8777 17.491L18.8827 17.991ZM19.128 17.9878L19.1191 17.4879L19.1182 17.4879L19.128 17.9878ZM20.2595 17.8851L20.3407 18.3785L20.3429 18.3781L20.2595 17.8851ZM21.4338 17.4979L21.2074 17.0521L21.2073 17.0521L21.4338 17.4979ZM22.4383 16.767L22.0841 16.4141L22.0838 16.4144L22.4383 16.767ZM23.1656 15.7673L23.6103 15.9958L23.6129 15.9908L23.1656 15.7673ZM23.5503 14.5941L24.0432 14.6782L24.0436 14.6759L23.5503 14.5941ZM23.6505 13.4533L23.151 13.4321L23.1506 13.4401L23.1506 13.448L23.6505 13.4533ZM23.6575 13.1339L23.1575 13.1274V13.1274L23.6575 13.1339ZM23.6599 12.9775L24.1599 12.9873V12.9775L23.6599 12.9775ZM23.66 5.98811L24.1601 5.98812L24.1599 5.97927L23.66 5.98811ZM23.6575 5.82162L24.1575 5.81501L24.1574 5.81475L23.6575 5.82162ZM23.6564 5.74116L24.1563 5.73429L24.1563 5.73374L23.6564 5.74116ZM23.6501 5.48775L23.1501 5.49349L23.1502 5.50061L23.1505 5.50773L23.6501 5.48775ZM23.5546 4.38153L24.0484 4.30278L24.047 4.29499L23.5546 4.38153ZM23.1724 3.21526L23.6201 2.99252L23.6174 2.98736L23.1724 3.21526ZM22.4465 2.21651L22.0916 2.5687L22.093 2.57013L22.4465 2.21651ZM21.45 1.49025L21.6769 1.04469L21.6739 1.0432L21.45 1.49025ZM20.2954 1.1072L20.3826 0.614792L20.374 0.613427L20.2954 1.1072ZM19.1579 1.00949L19.1369 1.50905L19.1444 1.50936L19.1518 1.50945L19.1579 1.00949ZM18.6782 1.00315L18.6693 1.50315H18.6782V1.00315ZM18.3992 1.0004L18.3971 1.50039L18.3992 1.0004ZM11.2186 1.00323L11.2184 1.50331L11.2269 1.50317L11.2186 1.00323ZM10.7318 1.00994L10.7372 1.50992L10.7445 1.50984L10.7518 1.50954L10.7318 1.00994ZM9.62515 1.10549L9.54601 0.611737L9.5386 0.61304L9.62515 1.10549ZM8.45936 1.4876L8.23661 1.03989L8.22951 1.04356L8.45936 1.4876ZM7.46042 2.21686L7.81397 2.57042L7.81419 2.5702L7.46042 2.21686ZM7.39145 2.28866L7.75301 2.63402L7.75397 2.63301L7.39145 2.28866ZM7.34583 2.33474L7.69319 2.6945L7.69969 2.68798L7.34583 2.33474ZM7.06731 2.60683L6.71375 2.25327V2.25327L7.06731 2.60683ZM6.74631 2.92783L6.39275 2.57428L6.3925 2.57453L6.74631 2.92783ZM4.61135 5.06588L4.92326 5.45666L4.94527 5.4391L4.96516 5.41917L4.61135 5.06588ZM4.21535 4.74923C4.19272 4.76993 4.15733 4.80432 4.12541 4.83576L4.82718 5.54816C4.85987 5.51596 4.88304 5.49374 4.89024 5.48715L4.21535 4.74923ZM4.12541 4.83576C4.1006 4.8602 4.08079 4.87994 4.04188 4.91885L4.74901 5.62594C4.78755 5.5874 4.80517 5.56985 4.82718 5.54816L4.12541 4.83576ZM4.04189 4.91885L1.89873 7.062L2.60584 7.76911L4.749 5.62595L4.04189 4.91885ZM1.89066 7.07026C1.83857 7.12482 1.80281 7.16107 1.71305 7.25083L2.42016 7.95793C2.51155 7.86654 2.55376 7.82385 2.61391 7.76085L1.89066 7.07026ZM1.71305 7.25083C1.65698 7.3069 1.61566 7.35021 1.53503 7.43588L2.26323 8.12125C2.34227 8.03727 2.37516 8.00293 2.42016 7.95793L1.71305 7.25083ZM1.55141 7.41926C1.38727 7.57811 1.21722 7.76469 1.05896 7.96002L1.83594 8.58955C1.97105 8.42279 2.11407 8.26635 2.24684 8.13787L1.55141 7.41926ZM1.08409 7.93132C0.903974 8.12186 0.760064 8.34378 0.659557 8.58623L1.58332 8.96918C1.63718 8.83927 1.71429 8.72036 1.8108 8.61826L1.08409 7.93132ZM0.646377 8.62177C0.456062 9.20159 0.45265 9.7808 0.628412 10.3235L1.57976 10.0153C1.47243 9.68394 1.46901 9.32205 1.5965 8.93364L0.646377 8.62177ZM0.635505 10.3438L0.654465 10.3948L1.59162 10.0459L1.57266 9.99494L0.635505 10.3438ZM0.662433 10.4148C0.763254 10.6536 0.905601 10.8724 1.08276 11.0613L1.81208 10.3771C1.7158 10.2745 1.63845 10.1555 1.58365 10.0258L0.662433 10.4148ZM1.0602 11.0355C1.21853 11.2293 1.38732 11.4144 1.56583 11.5898L2.26676 10.8766C2.1142 10.7266 1.96995 10.5685 1.83464 10.4029L1.0602 11.0355ZM1.55041 11.5739C1.61551 11.6438 1.65694 11.6873 1.71306 11.7434L2.42016 11.0363C2.3752 10.9913 2.34242 10.9571 2.28217 10.8924L1.55041 11.5739ZM1.71305 11.7434L1.89873 11.929L2.60584 11.2219L2.42016 11.0363L1.71305 11.7434ZM1.89845 11.9288L3.85242 13.8859L4.5601 13.1793L2.60612 11.2222L1.89845 11.9288ZM3.85271 13.8862C3.94431 13.9778 3.99272 14.0257 4.04925 14.0797L4.73972 13.3563C4.69228 13.311 4.65096 13.2702 4.55981 13.1791L3.85271 13.8862ZM4.03186 14.0622C4.09369 14.1274 4.15852 14.1919 4.2238 14.2534L4.90916 13.5252C4.85762 13.4767 4.80609 13.4253 4.75712 13.3738L4.03186 14.0622ZM4.23385 14.2626C4.22485 14.2546 4.83025 14.8589 5.46741 15.4955C5.77935 15.8072 6.09096 16.1186 6.3246 16.352C6.44141 16.4688 6.53873 16.566 6.60684 16.6341C6.6409 16.6681 6.66766 16.6949 6.6859 16.7131C6.69502 16.7222 6.70201 16.7292 6.70672 16.7339C6.70908 16.7362 6.71087 16.738 6.71206 16.7392C6.71266 16.7398 6.71311 16.7403 6.71341 16.7406C6.71356 16.7407 6.71368 16.7408 6.71375 16.7409C6.71379 16.741 6.71382 16.741 6.71384 16.741C6.71386 16.741 6.71387 16.741 7.06731 16.3874C7.42075 16.0337 7.42074 16.0337 7.42072 16.0337C7.4207 16.0336 7.42067 16.0336 7.42063 16.0336C7.42056 16.0335 7.42044 16.0334 7.42029 16.0332C7.41999 16.0329 7.41954 16.0325 7.41894 16.0319C7.41774 16.0307 7.41596 16.0289 7.4136 16.0266C7.40889 16.0218 7.4019 16.0149 7.39277 16.0057C7.37453 15.9875 7.34777 15.9608 7.31371 15.9267C7.24559 15.8587 7.14827 15.7614 7.03145 15.6447C6.79781 15.4112 6.48617 15.0998 6.17421 14.7881C5.56357 14.178 4.91855 13.5333 4.89911 13.516L4.23385 14.2626ZM6.71375 16.7409C6.79397 16.8211 6.85867 16.8841 6.99853 17.0192L7.69313 16.2998C7.55386 16.1653 7.49448 16.1074 7.42086 16.0338L6.71375 16.7409ZM6.99567 17.0164C7.00053 17.0211 7.00789 17.0285 7.01542 17.0361C7.01902 17.0398 7.02229 17.0431 7.02489 17.0457C7.02783 17.0487 7.02886 17.0498 7.02848 17.0494L7.75159 16.3587C7.74041 16.347 7.71407 16.3203 7.696 16.3025L6.99567 17.0164ZM7.02755 17.0484C7.06152 17.0842 7.08762 17.1116 7.10714 17.1312L7.81424 16.424C7.80598 16.4158 7.7904 16.3995 7.75252 16.3597L7.02755 17.0484ZM7.10692 17.1309C7.43373 17.4581 7.80939 17.7331 8.22034 17.946L8.68021 17.058C8.36061 16.8925 8.0685 16.6786 7.81446 16.4243L7.10692 17.1309ZM8.22747 17.9496C8.64422 18.157 9.07948 18.3005 9.52907 18.3795L9.70234 17.3947C9.34849 17.3324 9.00486 17.2195 8.67309 17.0544L8.22747 17.9496ZM9.53502 18.3806C9.93858 18.4465 10.3391 18.482 10.7407 18.4878L10.7551 17.4879C10.4032 17.4828 10.0518 17.4518 9.69639 17.3937L9.53502 18.3806ZM10.7379 18.4877C10.8054 18.4891 10.8614 18.4898 10.9817 18.491L10.9917 17.491C10.8718 17.4898 10.8201 17.4892 10.758 17.4879L10.7379 18.4877ZM10.9817 18.491C11.0975 18.4921 11.1464 18.4928 11.2065 18.494L11.2265 17.4942C11.161 17.4929 11.1079 17.4922 10.9917 17.491L10.9817 18.491ZM11.2165 18.4941L18.6373 18.4942L18.6373 17.4942L11.2165 17.4941L11.2165 18.4941ZM18.6463 18.4941C18.7208 18.4928 18.771 18.4921 18.8876 18.491L18.8777 17.491C18.7601 17.4922 18.7068 17.4929 18.6283 17.4943L18.6463 18.4941ZM18.8876 18.491C19.0091 18.4898 19.0656 18.4891 19.1378 18.4877L19.1182 17.4879C19.0511 17.4892 18.9987 17.4898 18.8777 17.491L18.8876 18.491ZM19.1368 18.4877C19.5395 18.4806 19.9422 18.4441 20.3407 18.3785L20.1783 17.3918C19.8276 17.4495 19.4732 17.4816 19.1191 17.4879L19.1368 18.4877ZM20.3429 18.3781C20.8032 18.3003 21.2464 18.154 21.6603 17.9436L21.2073 17.0521C20.8838 17.2166 20.537 17.3311 20.1761 17.3921L20.3429 18.3781ZM21.6602 17.9437C22.0791 17.7309 22.4614 17.4527 22.7928 17.1196L22.0838 16.4144C21.8274 16.6722 21.5315 16.8875 21.2074 17.0521L21.6602 17.9437ZM22.7925 17.1198C23.1213 16.7898 23.3973 16.4105 23.6103 15.9958L22.7208 15.5388C22.5549 15.8618 22.34 16.1572 22.0841 16.4141L22.7925 17.1198ZM23.6129 15.9908C23.8217 15.5727 23.9658 15.1326 24.0432 14.6782L23.0575 14.5101C22.9966 14.8668 22.8836 15.213 22.7183 15.5439L23.6129 15.9908ZM24.0436 14.6759C24.1106 14.2716 24.1462 13.8656 24.1505 13.4586L23.1506 13.448C23.1468 13.8036 23.1157 14.1585 23.0571 14.5124L24.0436 14.6759ZM24.1501 13.4746C24.1538 13.3879 24.1553 13.3062 24.1575 13.1404L23.1575 13.1274C23.1554 13.2936 23.154 13.3619 23.151 13.4321L24.1501 13.4746ZM24.1575 13.1404C24.1585 13.0617 24.159 13.0283 24.1598 12.9873L23.16 12.9677C23.1591 13.0122 23.1586 13.0484 23.1575 13.1274L24.1575 13.1404ZM24.1599 12.9775L24.16 5.98812L23.16 5.9881L23.1599 12.9775L24.1599 12.9775ZM24.1599 5.97927C24.159 5.92582 24.1585 5.89204 24.1575 5.81501L23.1575 5.82824C23.1586 5.90609 23.1591 5.94148 23.1601 5.99695L24.1599 5.97927ZM24.1574 5.81475L24.1563 5.73429L23.1564 5.74803L23.1575 5.8285L24.1574 5.81475ZM24.1563 5.73374C24.1548 5.63012 24.1529 5.5494 24.1497 5.46776L23.1505 5.50773C23.1533 5.57773 23.155 5.64927 23.1564 5.74858L24.1563 5.73374ZM24.15 5.482C24.1456 5.09795 24.1114 4.69798 24.0483 4.30279L23.0608 4.46028C23.1164 4.80855 23.1463 5.15972 23.1501 5.49349L24.15 5.482ZM24.047 4.29499C23.9665 3.83659 23.8234 3.40122 23.6201 2.99254L22.7247 3.43798C22.8848 3.75966 22.998 4.10319 23.0621 4.46807L24.047 4.29499ZM23.6174 2.98736C23.4029 2.56839 23.1283 2.19111 22.8 1.8629L22.093 2.57013C22.3469 2.82396 22.5599 3.11623 22.7274 3.44315L23.6174 2.98736ZM22.8014 1.86432C22.4737 1.53408 22.0935 1.25683 21.6769 1.0447L21.2231 1.9358C21.5452 2.09984 21.839 2.31414 22.0916 2.5687L22.8014 1.86432ZM21.6739 1.0432C21.264 0.837873 20.8304 0.694168 20.3826 0.614866L20.2082 1.59954C20.5604 1.66192 20.902 1.77498 21.2261 1.9373L21.6739 1.0432ZM20.374 0.613427C19.9667 0.548556 19.5659 0.514398 19.1639 0.509524L19.1518 1.50945C19.5046 1.51373 19.8568 1.54366 20.2168 1.60098L20.374 0.613427ZM19.1788 0.509927C19.0426 0.504212 18.9229 0.503147 18.6782 0.503147V1.50315C18.9223 1.50315 19.0236 1.50429 19.1369 1.50905L19.1788 0.509927ZM18.6871 0.503226C18.6039 0.50175 18.5079 0.500851 18.4013 0.500403L18.3971 1.50039C18.501 1.50083 18.5922 1.5017 18.6693 1.50307L18.6871 0.503226ZM18.4013 0.500403C18.3209 0.500066 18.2571 0.5 18.1149 0.5V1.5C18.2569 1.5 18.3189 1.50007 18.3971 1.50039L18.4013 0.500403ZM18.1149 0.5H11.7924V1.5H18.1149V0.5ZM11.7924 0.5C11.5084 0.5 11.3765 0.500533 11.2102 0.503304L11.2269 1.50317C11.3843 1.50054 11.5093 1.5 11.7924 1.5V0.5ZM11.2188 0.503235C10.9833 0.503147 10.8646 0.504234 10.7119 0.510344L10.7518 1.50954C10.8837 1.50427 10.986 1.50315 11.2184 1.50323L11.2188 0.503235ZM10.7265 0.509973C10.3423 0.514073 9.94173 0.548367 9.54602 0.611793L9.70428 1.59919C10.0526 1.54336 10.4039 1.51347 10.7372 1.50992L10.7265 0.509973ZM9.5386 0.61304C9.08066 0.693524 8.6453 0.836623 8.23664 1.03995L8.68208 1.93526C9.00378 1.7752 9.34731 1.66199 9.7117 1.59794L9.5386 0.61304ZM8.22951 1.04356C7.80996 1.26074 7.43416 1.53561 7.10665 1.86352L7.81419 2.5702C8.06807 2.31601 8.36004 2.10203 8.68921 1.93164L8.22951 1.04356ZM7.10687 1.86331C7.08761 1.88257 7.06153 1.90999 7.02893 1.94431L7.75397 2.63301C7.7904 2.59466 7.80599 2.5784 7.81397 2.57042L7.10687 1.86331ZM7.02989 1.9433C7.03002 1.94316 7.02299 1.95032 7.01086 1.96252C7.0059 1.96751 7.00116 1.97227 6.99764 1.9758C6.99589 1.97756 6.99445 1.979 6.99346 1.97999C6.99297 1.98049 6.99259 1.98087 6.99233 1.98113C6.99221 1.98125 6.99211 1.98135 6.99205 1.98141C6.99202 1.98144 6.992 1.98146 6.99198 1.98148C6.99198 1.98148 6.99197 1.98149 6.99197 1.98149C6.99197 1.98149 6.99197 1.98149 6.99197 1.98149L6.99197 1.98149C6.99197 1.98149 6.99197 1.98149 7.34583 2.33474C7.69969 2.68798 7.69969 2.68798 7.69969 2.68798C7.69969 2.68798 7.69969 2.68798 7.6997 2.68798C7.6997 2.68797 7.6997 2.68797 7.6997 2.68797C7.69971 2.68796 7.69972 2.68795 7.69973 2.68794C7.69975 2.68792 7.69979 2.68789 7.69983 2.68785C7.69991 2.68777 7.70002 2.68765 7.70017 2.6875C7.70047 2.68721 7.70089 2.68678 7.70143 2.68623C7.70252 2.68515 7.70406 2.6836 7.70593 2.68172C7.70967 2.67797 7.71477 2.67285 7.72018 2.66741C7.72879 2.65875 7.74456 2.64287 7.75301 2.63402L7.02989 1.9433ZM6.99853 1.97503C6.85867 2.11007 6.79397 2.17306 6.71375 2.25327L7.42086 2.96038C7.49448 2.88676 7.55386 2.8289 7.69313 2.69444L6.99853 1.97503ZM6.71375 2.25327L6.39275 2.57428L7.09986 3.28138L7.42086 2.96038L6.71375 2.25327ZM6.3925 2.57453L4.25754 4.71258L4.96516 5.41917L7.10011 3.28113L6.3925 2.57453ZM4.29944 4.67509C4.26761 4.7005 4.23349 4.73039 4.19924 4.76464L4.90635 5.47175C4.91176 5.46633 4.91768 5.46112 4.92326 5.45666L4.29944 4.67509Z" fill="#081326"/>
<path d="M17.24 6.14238C17.4012 5.98047 17.6441 5.93173 17.8552 6.01892C18.0664 6.10611 18.2041 6.31203 18.2041 6.54048C18.2041 6.69277 18.1429 6.83504 18.0396 6.9388L18.0456 6.94486L15.5005 9.49268L17.9845 11.9727C18.0069 11.9891 18.0284 12.0073 18.0488 12.0274C18.2107 12.1886 18.2594 12.4315 18.1722 12.6427C18.085 12.8538 17.8791 12.9916 17.6507 12.9916C17.4984 12.9916 17.3561 12.9304 17.2523 12.827L17.2463 12.8331L14.7023 10.2918L12.1606 12.8362L12.1529 12.8285C12.1019 12.8785 12.0411 12.9192 11.9726 12.9475C11.7606 13.035 11.5168 12.9861 11.355 12.8236C11.1349 12.6026 11.1349 12.2453 11.355 12.0242C11.387 11.992 11.4223 11.9643 11.4599 11.9412L13.9041 9.49443L11.3549 6.94804L11.3626 6.94034C11.3127 6.8894 11.2719 6.82857 11.2436 6.76004C11.1561 6.54805 11.205 6.30421 11.3675 6.1424C11.5885 5.92234 11.9459 5.92234 12.1669 6.1424C12.199 6.17441 12.2268 6.20964 12.2498 6.2472L14.7021 8.69554L17.1775 6.21749C17.1958 6.19114 17.2167 6.16599 17.24 6.14238Z" fill="white"/>
</svg>
