<svg width="48" height="29" viewBox="0 0 48 29" fill="none" xmlns="http://www.w3.org/2000/svg">
<path d="M28.5213 7.42205V5.54224L25.4423 6.41732L14.4875 9.62596L12.9642 10.0797V20.5159L15.5571 19.8029V12.0892V11.6678L28.5213 7.9082V7.42205Z" fill="#BBBCBF"/>
<path d="M32.4106 9.07495V0L29.8177 0.777851V8.78325L18.3768 12.1215L16.8535 12.5753V15.0061L32.4106 10.4038V9.07495Z" fill="#BBBCBF"/>
<path d="M10.3714 19.2195H0V1.32886H2.59284V16.9831H10.3714V19.2195Z" fill="#BBBCBF"/>
<path d="M38.925 19.2195H36.3322V1.32886H47.9999V3.59759H38.925V9.04256H44.1107V11.3113H38.925V19.2195Z" fill="#BBBCBF"/>
<path d="M12.9642 0V8.71843L15.5571 7.97299V0H12.9642Z" fill="#BBBCBF"/>
<path d="M32.4105 20.516V11.7651L29.8176 12.5106V20.516H32.4105Z" fill="#BBBCBF"/>
<path d="M13.2559 27.3548H11.3761L11.0196 28.2298H10.3065L11.9919 24.4702H12.6725L14.3578 28.2298H13.6124L13.2559 27.3548ZM13.029 26.8038L12.316 25.1508L11.6029 26.8038H13.029Z" fill="#BBBCBF"/>
<path d="M16.9507 28.1324C16.6914 28.0352 16.4645 27.938 16.3025 27.8083L16.5294 27.2573C16.6914 27.387 16.8859 27.4842 17.1128 27.549C17.3396 27.6139 17.5665 27.6787 17.7934 27.6787C18.0851 27.6787 18.2795 27.6463 18.4092 27.549C18.5388 27.4518 18.6036 27.3546 18.6036 27.1925C18.6036 27.0953 18.5712 26.9981 18.474 26.9332C18.4092 26.8684 18.3119 26.8036 18.1823 26.7712C18.0527 26.7388 17.8906 26.674 17.6961 26.6415C17.4044 26.5767 17.1776 26.5119 17.0155 26.4471C16.8535 26.3823 16.6914 26.285 16.5618 26.123C16.4321 25.9933 16.3673 25.7665 16.3673 25.5396C16.3673 25.3451 16.4321 25.1507 16.5294 24.9562C16.6266 24.7941 16.8211 24.6645 17.0479 24.5349C17.2748 24.4376 17.5665 24.3728 17.8906 24.3728C18.1175 24.3728 18.3444 24.4052 18.5712 24.47C18.7981 24.5349 18.9926 24.5997 19.1546 24.7293L18.9277 25.2803C18.7657 25.1831 18.6036 25.1182 18.4092 25.0534C18.2147 24.9886 18.0527 24.9886 17.8906 24.9886C17.5989 24.9886 17.4044 25.021 17.2748 25.1182C17.1452 25.2155 17.0803 25.3451 17.0803 25.4748C17.0803 25.572 17.1128 25.6692 17.21 25.734C17.3072 25.7989 17.372 25.8637 17.5017 25.8961C17.6313 25.9285 17.7934 25.9933 17.9878 26.0257C18.2795 26.0906 18.5064 26.1554 18.6685 26.2202C18.8629 26.285 18.9926 26.3823 19.1222 26.5443C19.2518 26.7064 19.3167 26.8684 19.3167 27.1277C19.3167 27.3222 19.2519 27.5166 19.1546 27.6787C19.0574 27.8407 18.8629 27.9704 18.636 28.0676C18.4092 28.1648 18.1175 28.2297 17.7934 28.2297C17.5017 28.2621 17.21 28.2297 16.9507 28.1324Z" fill="#BBBCBF"/>
<path d="M22.1039 28.1324C21.8446 28.0352 21.6177 27.938 21.4557 27.8083L21.6826 27.2573C21.8446 27.387 22.0391 27.4842 22.266 27.549C22.4928 27.6139 22.7197 27.6787 22.9466 27.6787C23.2383 27.6787 23.4327 27.6463 23.5624 27.549C23.692 27.4518 23.7568 27.3546 23.7568 27.1925C23.7568 27.0953 23.7244 26.9981 23.6272 26.9332C23.5624 26.8684 23.4651 26.8036 23.3355 26.7712C23.2059 26.7388 23.0438 26.674 22.8493 26.6415C22.5576 26.5767 22.3308 26.5119 22.1687 26.4471C22.0067 26.3823 21.8446 26.285 21.715 26.123C21.5853 25.9933 21.5205 25.7665 21.5205 25.5396C21.5205 25.3451 21.5853 25.1507 21.6826 24.9562C21.7798 24.7617 21.9743 24.6645 22.2011 24.5349C22.428 24.4376 22.7197 24.3728 23.0438 24.3728C23.2707 24.3728 23.4976 24.4052 23.7244 24.47C23.9513 24.5349 24.1458 24.5997 24.3078 24.7293L24.0809 25.2803C23.9189 25.1831 23.7568 25.1182 23.5624 25.0534C23.3679 24.9886 23.2059 24.9886 23.0438 24.9886C22.7521 24.9886 22.5576 25.021 22.428 25.1182C22.2984 25.2155 22.2335 25.3451 22.2335 25.4748C22.2335 25.572 22.2659 25.6692 22.3632 25.734C22.428 25.7989 22.5252 25.8637 22.6549 25.8961C22.7845 25.9285 22.9466 25.9933 23.141 26.0257C23.4327 26.0906 23.6596 26.1554 23.8217 26.2202C24.0161 26.285 24.1458 26.3823 24.2754 26.5443C24.405 26.7064 24.4699 26.8684 24.4699 27.1277C24.4699 27.3222 24.405 27.5166 24.3078 27.6787C24.2106 27.8407 24.0161 27.9704 23.7892 28.0676C23.5624 28.1648 23.2707 28.2297 22.9466 28.2297C22.6549 28.2621 22.3956 28.2297 22.1039 28.1324Z" fill="#BBBCBF"/>
<path d="M29.7853 27.614V28.1974H26.9656V24.4377H29.7205V25.0211H27.6786V25.9935H29.4936V26.5768H27.6786V27.614H29.7853V27.614Z" fill="#BBBCBF"/>
<path d="M33.0911 25.0534H31.8595V24.47H35.0681V25.0534H33.8365V28.2296H33.1235V25.0534H33.0911Z" fill="#BBBCBF"/>
</svg>
