<svg width="70" height="42" viewBox="0 0 70 42" fill="none" xmlns="http://www.w3.org/2000/svg">
<path d="M41.5935 10.8496V8.10181L37.1033 9.38095L21.1276 14.0712L18.9061 14.7344V29.9894L22.6874 28.9471V17.6717V17.0558L41.5935 11.5602V10.8496Z" fill="#3F3F40"/>
<path d="M47.2654 13.2657V0.000488281L43.4841 1.1375V12.8393L26.7995 17.719L24.578 18.3823V21.9355L47.2654 15.2081V13.2657Z" fill="#3F3F40"/>
<path d="M15.1249 28.0943H0V1.94287H3.78123V24.8254H15.1249V28.0943Z" fill="#3F3F40"/>
<path d="M56.7657 28.0943H52.9845V1.94287H70V5.25917H56.7657V13.2183H64.3282V16.5346H56.7657V28.0943Z" fill="#3F3F40"/>
<path d="M18.9061 0.000488281V12.7446L22.6874 11.6549V0.000488281H18.9061Z" fill="#3F3F40"/>
<path d="M47.2654 29.9895V17.198L43.4841 18.2876V29.9895H47.2654Z" fill="#3F3F40"/>
<path d="M19.3315 39.9857H16.5901L16.0702 41.2649H15.0304L17.4882 35.7693H18.4808L20.9385 41.2649H19.8514L19.3315 39.9857ZM19.0007 39.1803L17.9608 36.7642L16.921 39.1803H19.0007Z" fill="#3F3F40"/>
<path d="M24.7198 41.1226C24.3416 40.9804 24.0108 40.8383 23.7745 40.6488L24.1053 39.8434C24.3416 40.0329 24.6252 40.175 24.9561 40.2698C25.287 40.3645 25.6178 40.4593 25.9487 40.4593C26.3741 40.4593 26.6576 40.4119 26.8467 40.2698C27.0358 40.1277 27.1303 39.9855 27.1303 39.7486C27.1303 39.6065 27.083 39.4644 26.9412 39.3696C26.8467 39.2749 26.7049 39.1801 26.5159 39.1328C26.3268 39.0854 26.0905 38.9906 25.8069 38.9433C25.3815 38.8485 25.0506 38.7538 24.8143 38.659C24.578 38.5643 24.3416 38.4221 24.1526 38.1852C23.9635 37.9957 23.869 37.6641 23.869 37.3325C23.869 37.0482 23.9635 36.764 24.1053 36.4797C24.2471 36.2428 24.5307 36.0533 24.8616 35.8638C25.1924 35.7217 25.6178 35.627 26.0905 35.627C26.4213 35.627 26.7522 35.6743 27.083 35.7691C27.4139 35.8638 27.6975 35.9586 27.9338 36.1481L27.603 36.9535C27.3666 36.8114 27.1303 36.7166 26.8467 36.6218C26.5631 36.5271 26.3268 36.5271 26.0905 36.5271C25.6651 36.5271 25.3815 36.5745 25.1924 36.7166C25.0034 36.8587 24.9088 37.0482 24.9088 37.2377C24.9088 37.3799 24.9561 37.522 25.0979 37.6167C25.2397 37.7115 25.3342 37.8062 25.5233 37.8536C25.7123 37.901 25.9487 37.9957 26.2323 38.0431C26.6576 38.1379 26.9885 38.2326 27.2248 38.3274C27.5084 38.4221 27.6975 38.5643 27.8865 38.8011C28.0756 39.038 28.1701 39.2749 28.1701 39.6539C28.1701 39.9382 28.0756 40.2224 27.9338 40.4593C27.792 40.6962 27.5084 40.8857 27.1776 41.0278C26.8467 41.1699 26.4213 41.2647 25.9487 41.2647C25.5233 41.312 25.0979 41.2647 24.7198 41.1226Z" fill="#3F3F40"/>
<path d="M32.235 41.1226C31.8569 40.9804 31.526 40.8383 31.2897 40.6488L31.6205 39.8434C31.8569 40.0329 32.1404 40.175 32.4713 40.2698C32.8022 40.3645 33.133 40.4593 33.4639 40.4593C33.8893 40.4593 34.1729 40.4119 34.3619 40.2698C34.551 40.1277 34.6455 39.9855 34.6455 39.7486C34.6455 39.6065 34.5982 39.4644 34.4565 39.3696C34.3619 39.2749 34.2201 39.1801 34.0311 39.1328C33.842 39.0854 33.6057 38.9906 33.3221 38.9433C32.8967 38.8485 32.5658 38.7538 32.3295 38.659C32.0932 38.5643 31.8569 38.4221 31.6678 38.1852C31.4787 37.9957 31.3842 37.6641 31.3842 37.3325C31.3842 37.0482 31.4787 36.764 31.6205 36.4797C31.7623 36.1955 32.0459 36.0533 32.3768 35.8638C32.7076 35.7217 33.133 35.627 33.6057 35.627C33.9365 35.627 34.2674 35.6743 34.5982 35.7691C34.9291 35.8638 35.2127 35.9586 35.449 36.1481L35.1182 36.9535C34.8818 36.8114 34.6455 36.7166 34.3619 36.6218C34.0783 36.5271 33.842 36.5271 33.6057 36.5271C33.1803 36.5271 32.8967 36.5745 32.7076 36.7166C32.5186 36.8587 32.424 37.0482 32.424 37.2377C32.424 37.3799 32.4713 37.522 32.6131 37.6167C32.7076 37.7115 32.8494 37.8062 33.0385 37.8536C33.2276 37.901 33.4639 37.9957 33.7475 38.0431C34.1729 38.1379 34.5037 38.2326 34.74 38.3274C35.0236 38.4221 35.2127 38.5643 35.4018 38.8011C35.5908 39.038 35.6853 39.2749 35.6853 39.6539C35.6853 39.9382 35.5908 40.2224 35.449 40.4593C35.3072 40.6962 35.0236 40.8857 34.6928 41.0278C34.3619 41.1699 33.9365 41.2647 33.4639 41.2647C33.0385 41.312 32.6604 41.2647 32.235 41.1226Z" fill="#3F3F40"/>
<path d="M43.4369 40.3645V41.2173H39.3248V35.7217H43.3423V36.5744H40.3646V37.9957H43.0115V38.8485H40.3646V40.3645H43.4369Z" fill="#3F3F40"/>
<path d="M48.2579 36.6218H46.4619V35.769H51.1411V36.6218H49.345V41.2646H48.3052V36.6218H48.2579Z" fill="#3F3F40"/>
</svg>
