<svg width="48" height="29" viewBox="0 0 48 29" fill="none" xmlns="http://www.w3.org/2000/svg">
<path d="M28.5213 7.42205V5.54224L25.4423 6.41732L14.4875 9.62596L12.9642 10.0797V20.5159L15.5571 19.8029V12.0892V11.6678L28.5213 7.9082V7.42205Z" fill="#8C959D"/>
<path d="M32.4105 9.07495V0L29.8177 0.777851V8.78325L18.3768 12.1215L16.8535 12.5753V15.0061L32.4105 10.4038V9.07495Z" fill="#8C959D"/>
<path d="M10.3714 19.2195H0V1.32886H2.59284V16.9831H10.3714V19.2195Z" fill="#081326"/>
<path d="M38.9251 19.2195H36.3322V1.32886H48V3.59759H38.9251V9.04256H44.1107V11.3113H38.9251V19.2195Z" fill="#081326"/>
<path d="M12.9642 0V8.71843L15.5571 7.97299V0H12.9642Z" fill="#081326"/>
<path d="M32.4105 20.5159V11.765L29.8177 12.5105V20.5159H32.4105Z" fill="#081326"/>
<path d="M13.2559 27.3546H11.3761L11.0196 28.2297H10.3066L11.9919 24.4701H12.6725L14.3579 28.2297H13.6125L13.2559 27.3546ZM13.0291 26.8037L12.316 25.1507L11.603 26.8037H13.0291Z" fill="#081326"/>
<path d="M16.9508 28.1324C16.6915 28.0352 16.4646 27.938 16.3026 27.8083L16.5294 27.2573C16.6915 27.387 16.8859 27.4842 17.1128 27.549C17.3397 27.6139 17.5666 27.6787 17.7934 27.6787C18.0851 27.6787 18.2796 27.6463 18.4092 27.549C18.5389 27.4518 18.6037 27.3546 18.6037 27.1925C18.6037 27.0953 18.5713 26.9981 18.4741 26.9332C18.4092 26.8684 18.312 26.8036 18.1824 26.7712C18.0527 26.7388 17.8907 26.674 17.6962 26.6415C17.4045 26.5767 17.1776 26.5119 17.0156 26.4471C16.8535 26.3823 16.6915 26.285 16.5618 26.123C16.4322 25.9933 16.3674 25.7665 16.3674 25.5396C16.3674 25.3451 16.4322 25.1507 16.5294 24.9562C16.6267 24.7941 16.8211 24.6645 17.048 24.5349C17.2749 24.4376 17.5666 24.3728 17.8907 24.3728C18.1175 24.3728 18.3444 24.4052 18.5713 24.47C18.7982 24.5349 18.9926 24.5997 19.1547 24.7293L18.9278 25.2803C18.7658 25.1831 18.6037 25.1182 18.4092 25.0534C18.2148 24.9886 18.0527 24.9886 17.8907 24.9886C17.599 24.9886 17.4045 25.021 17.2749 25.1182C17.1452 25.2155 17.0804 25.3451 17.0804 25.4748C17.0804 25.572 17.1128 25.6692 17.21 25.734C17.3073 25.7989 17.3721 25.8637 17.5017 25.8961C17.6314 25.9285 17.7934 25.9933 17.9879 26.0257C18.2796 26.0906 18.5065 26.1554 18.6685 26.2202C18.863 26.285 18.9926 26.3823 19.1223 26.5443C19.2519 26.7064 19.3167 26.8684 19.3167 27.1277C19.3167 27.3222 19.2519 27.5166 19.1547 27.6787C19.0574 27.8407 18.863 27.9704 18.6361 28.0676C18.4092 28.1648 18.1175 28.2297 17.7934 28.2297C17.5017 28.2621 17.21 28.2297 16.9508 28.1324Z" fill="#081326"/>
<path d="M22.104 28.1324C21.8447 28.0352 21.6179 27.938 21.4558 27.8083L21.6827 27.2573C21.8447 27.387 22.0392 27.4842 22.2661 27.549C22.4929 27.6139 22.7198 27.6787 22.9467 27.6787C23.2384 27.6787 23.4329 27.6463 23.5625 27.549C23.6921 27.4518 23.757 27.3546 23.757 27.1925C23.757 27.0953 23.7245 26.9981 23.6273 26.9332C23.5625 26.8684 23.4653 26.8036 23.3356 26.7712C23.206 26.7388 23.0439 26.674 22.8495 26.6415C22.5578 26.5767 22.3309 26.5119 22.1688 26.4471C22.0068 26.3823 21.8447 26.285 21.7151 26.123C21.5854 25.9933 21.5206 25.7665 21.5206 25.5396C21.5206 25.3451 21.5855 25.1507 21.6827 24.9562C21.7799 24.7617 21.9744 24.6645 22.2012 24.5349C22.4281 24.4376 22.7198 24.3728 23.0439 24.3728C23.2708 24.3728 23.4977 24.4052 23.7245 24.47C23.9514 24.5349 24.1459 24.5997 24.3079 24.7293L24.0811 25.2803C23.919 25.1831 23.757 25.1182 23.5625 25.0534C23.368 24.9886 23.206 24.9886 23.0439 24.9886C22.7522 24.9886 22.5578 25.021 22.4281 25.1182C22.2985 25.2155 22.2337 25.3451 22.2337 25.4748C22.2337 25.572 22.2661 25.6692 22.3633 25.734C22.4281 25.7989 22.5254 25.8637 22.655 25.8961C22.7846 25.9285 22.9467 25.9933 23.1412 26.0257C23.4329 26.0906 23.6597 26.1554 23.8218 26.2202C24.0162 26.285 24.1459 26.3823 24.2755 26.5443C24.4052 26.7064 24.47 26.8684 24.47 27.1277C24.47 27.3222 24.4052 27.5166 24.3079 27.6787C24.2107 27.8407 24.0162 27.9704 23.7894 28.0676C23.5625 28.1648 23.2708 28.2297 22.9467 28.2297C22.655 28.2621 22.3957 28.2297 22.104 28.1324Z" fill="#081326"/>
<path d="M29.7854 27.6139V28.1972H26.9656V24.4376H29.7205V25.021H27.6787V25.9933H29.4937V26.5767H27.6787V27.6139H29.7854Z" fill="#081326"/>
<path d="M33.0912 25.0534H31.8596V24.47H35.0682V25.0534H33.8366V28.2296H33.1236V25.0534H33.0912Z" fill="#081326"/>
</svg>
