<svg width="70" height="42" viewBox="0 0 70 42" fill="none" xmlns="http://www.w3.org/2000/svg">
<path d="M41.5935 10.849V8.10124L37.1033 9.38039L21.1276 14.0706L18.9061 14.7338V29.9888L22.6874 28.9466V17.6711V17.0553L41.5935 11.5597V10.849Z" fill="#8C959D"/>
<path d="M47.2654 13.2652V0L43.4841 1.13702V12.8388L26.7995 17.7185L24.578 18.3818V21.935L47.2654 15.2076V13.2652Z" fill="#8C959D"/>
<path d="M15.1249 28.0938H0V1.94238H3.78123V24.8249H15.1249V28.0938Z" fill="#E6E7E8"/>
<path d="M56.7657 28.0938H52.9845V1.94238H70V5.25869H56.7657V13.2178H64.3282V16.5341H56.7657V28.0938Z" fill="#E6E7E8"/>
<path d="M18.9061 0V12.7441L22.6874 11.6544V0H18.9061Z" fill="#E6E7E8"/>
<path d="M47.2654 29.9889V17.1974L43.4841 18.287V29.9889H47.2654Z" fill="#E6E7E8"/>
<path d="M19.3315 39.9852H16.5901L16.0702 41.2644H15.0304L17.4882 35.7688H18.4808L20.9385 41.2644H19.8514L19.3315 39.9852ZM19.0007 39.1798L17.9608 36.7637L16.921 39.1798H19.0007Z" fill="#E6E7E8"/>
<path d="M24.7198 41.1222C24.3416 40.98 24.0108 40.8379 23.7745 40.6484L24.1053 39.843C24.3416 40.0325 24.6252 40.1747 24.9561 40.2694C25.287 40.3642 25.6178 40.4589 25.9487 40.4589C26.3741 40.4589 26.6576 40.4115 26.8467 40.2694C27.0358 40.1273 27.1303 39.9851 27.1303 39.7483C27.1303 39.6061 27.083 39.464 26.9412 39.3693C26.8467 39.2745 26.7049 39.1798 26.5159 39.1324C26.3268 39.085 26.0905 38.9903 25.8069 38.9429C25.3815 38.8481 25.0506 38.7534 24.8143 38.6586C24.578 38.5639 24.3416 38.4217 24.1526 38.1849C23.9635 37.9954 23.869 37.6637 23.869 37.3321C23.869 37.0478 23.9635 36.7636 24.1053 36.4793C24.2471 36.2425 24.5307 36.053 24.8616 35.8635C25.1924 35.7213 25.6178 35.6266 26.0905 35.6266C26.4213 35.6266 26.7522 35.6739 27.083 35.7687C27.4139 35.8635 27.6975 35.9582 27.9338 36.1477L27.603 36.9531C27.3666 36.811 27.1303 36.7162 26.8467 36.6215C26.5631 36.5267 26.3268 36.5267 26.0905 36.5267C25.6651 36.5267 25.3815 36.5741 25.1924 36.7162C25.0034 36.8583 24.9088 37.0478 24.9088 37.2373C24.9088 37.3795 24.9561 37.5216 25.0979 37.6164C25.2397 37.7111 25.3342 37.8059 25.5233 37.8532C25.7123 37.9006 25.9487 37.9954 26.2323 38.0427C26.6576 38.1375 26.9885 38.2322 27.2248 38.327C27.5084 38.4217 27.6975 38.5639 27.8865 38.8008C28.0756 39.0376 28.1701 39.2745 28.1701 39.6535C28.1701 39.9378 28.0756 40.222 27.9338 40.4589C27.792 40.6958 27.5084 40.8853 27.1776 41.0274C26.8467 41.1695 26.4213 41.2643 25.9487 41.2643C25.5233 41.3117 25.0979 41.2643 24.7198 41.1222Z" fill="#E6E7E8"/>
<path d="M32.235 41.1222C31.8569 40.98 31.526 40.8379 31.2897 40.6484L31.6205 39.843C31.8569 40.0325 32.1404 40.1747 32.4713 40.2694C32.8022 40.3642 33.133 40.4589 33.4639 40.4589C33.8893 40.4589 34.1729 40.4115 34.3619 40.2694C34.551 40.1273 34.6455 39.9851 34.6455 39.7483C34.6455 39.6061 34.5982 39.464 34.4565 39.3693C34.3619 39.2745 34.2201 39.1798 34.0311 39.1324C33.842 39.085 33.6057 38.9903 33.3221 38.9429C32.8967 38.8481 32.5658 38.7534 32.3295 38.6586C32.0932 38.5639 31.8569 38.4217 31.6678 38.1849C31.4787 37.9954 31.3842 37.6637 31.3842 37.3321C31.3842 37.0478 31.4787 36.7636 31.6205 36.4793C31.7623 36.1951 32.0459 36.053 32.3768 35.8635C32.7076 35.7213 33.133 35.6266 33.6057 35.6266C33.9365 35.6266 34.2674 35.6739 34.5982 35.7687C34.9291 35.8635 35.2127 35.9582 35.449 36.1477L35.1182 36.9531C34.8818 36.811 34.6455 36.7162 34.3619 36.6215C34.0783 36.5267 33.842 36.5267 33.6057 36.5267C33.1803 36.5267 32.8967 36.5741 32.7076 36.7162C32.5186 36.8583 32.424 37.0478 32.424 37.2373C32.424 37.3795 32.4713 37.5216 32.6131 37.6164C32.7076 37.7111 32.8494 37.8059 33.0385 37.8532C33.2276 37.9006 33.4639 37.9954 33.7475 38.0427C34.1729 38.1375 34.5037 38.2322 34.74 38.327C35.0236 38.4217 35.2127 38.5639 35.4018 38.8008C35.5908 39.0376 35.6853 39.2745 35.6853 39.6535C35.6853 39.9378 35.5908 40.222 35.449 40.4589C35.3072 40.6958 35.0236 40.8853 34.6928 41.0274C34.3619 41.1695 33.9365 41.2643 33.4639 41.2643C33.0385 41.3117 32.6604 41.2643 32.235 41.1222Z" fill="#E6E7E8"/>
<path d="M43.4369 40.3642V41.2169H39.3248V35.7213H43.3423V36.5741H40.3646V37.9954H43.0115V38.8481H40.3646V40.3642H43.4369Z" fill="#E6E7E8"/>
<path d="M48.2579 36.6215H46.4619V35.7687H51.1411V36.6215H49.345V41.2643H48.3052V36.6215H48.2579Z" fill="#E6E7E8"/>
</svg>
