<svg width="90" height="53" viewBox="0 0 90 53" fill="none" xmlns="http://www.w3.org/2000/svg">
<path d="M53.4773 13.9162V10.3916L47.7042 12.0324L27.164 18.0486L24.3079 18.8994V38.4672L29.1694 37.1303V22.6671V21.8771L53.4773 14.8278V13.9162Z" fill="#C69D71"/>
<path d="M60.7697 17.0155V0L55.9081 1.45847V16.4686L34.4564 22.7279L31.6002 23.5787V28.1364L60.7697 19.5071V17.0155Z" fill="#C69D71"/>
<path d="M19.4463 36.0364H0V2.49146H4.86158V31.8432H19.4463V36.0364Z" fill="#E6E7E8"/>
<path d="M72.9845 36.0364H68.1229V2.49146H90V6.74534H72.9845V16.9547H82.7077V21.2085H72.9845V36.0364Z" fill="#E6E7E8"/>
<path d="M24.3079 0V16.3471L29.1694 14.9494V0H24.3079Z" fill="#E6E7E8"/>
<path d="M60.7698 38.4672V22.0593L55.9082 23.457V38.4672H60.7698Z" fill="#E6E7E8"/>
<path d="M15.314 46.1242C15.7394 46.3065 16.104 46.6103 16.3471 46.9749C16.5902 47.3396 16.7117 47.8257 16.7117 48.3119C16.7117 48.798 16.5902 49.2842 16.3471 49.6488C16.104 50.0134 15.7394 50.3173 15.314 50.4996C14.8886 50.6819 14.3417 50.8034 13.734 50.8034H12.0932V52.8696H10.7563V45.8203H13.6732C14.2809 45.8203 14.8279 45.9419 15.314 46.1242ZM14.9494 49.4057C15.2533 49.1627 15.3748 48.798 15.3748 48.3726C15.3748 47.9473 15.2533 47.5826 14.9494 47.3396C14.6456 47.0965 14.2202 46.9749 13.6732 46.9749H12.0932V49.7703H13.6125C14.2202 49.7703 14.6456 49.6488 14.9494 49.4057Z" fill="#E6E7E8"/>
<path d="M25.9487 52.8696L24.4903 50.8034C24.4295 50.8034 24.3687 50.8034 24.2472 50.8034H22.6672V52.8696H21.3303V45.8203H24.2472C24.8549 45.8203 25.4018 45.9419 25.8272 46.1242C26.2526 46.3065 26.6172 46.6103 26.8603 46.9749C27.1034 47.3396 27.2249 47.8257 27.2249 48.3119C27.2249 48.8588 27.1034 49.2842 26.8603 49.7096C26.6172 50.0742 26.2526 50.378 25.7664 50.5604L27.4072 52.8696H25.9487ZM25.4626 47.3396C25.1587 47.0965 24.7334 46.9749 24.1864 46.9749H22.6672V49.7703H24.1864C24.7334 49.7703 25.2195 49.6488 25.4626 49.4057C25.7664 49.1627 25.888 48.798 25.888 48.3726C25.888 47.9473 25.7664 47.5826 25.4626 47.3396Z" fill="#E6E7E8"/>
<path d="M32.0257 45.8203H33.3626V52.8696H32.0257V45.8203Z" fill="#E6E7E8"/>
<path d="M45.0304 45.8203L41.9312 52.8696H40.655L37.5557 45.8203H38.9534L41.3235 51.2896L43.6935 45.8203H45.0304Z" fill="#E6E7E8"/>
<path d="M53.4166 51.2896H49.892L49.2235 52.9304H47.8866L51.0466 45.8811H52.3228L55.4828 52.9304H54.0851L53.4166 51.2896ZM52.9913 50.2565L51.6543 47.1573L50.3174 50.2565H52.9913Z" fill="#E6E7E8"/>
<path d="M60.8306 46.975H58.5213V45.8811H64.5375V46.975H62.2283V52.9304H60.8913V46.975H60.8306Z" fill="#E6E7E8"/>
<path d="M74.0784 51.7758V52.8696H68.7914V45.8203H73.9568V46.9142H70.1283V48.7373H73.5314V49.8311H70.1283V51.7758H74.0784Z" fill="#E6E7E8"/>
</svg>
