<svg width="69" height="22" viewBox="0 0 69 22" fill="none" xmlns="http://www.w3.org/2000/svg">
<g clip-path="url(#clip0_1601_24969)">
<path d="M69.0186 19.083H47.7928V13.6316H69.0186V19.083Z" fill="#E6E7E8"/>
<path d="M66.2616 19.0829H47.7928V5.44849H66.2616V19.0829Z" fill="#E6E7E8"/>
<path d="M58.6313 19.083H47.7928V0H58.6313V19.083Z" fill="#E6E7E8"/>
<path d="M47.7898 2.13257V19.0813H58.6301V2.13257H47.7898Z" fill="#EDEFF2"/>
<path d="M36.9242 19.083H47.7927V21.809H36.9242V19.083Z" fill="#BBBCBF"/>
<path d="M47.7898 5.44556V19.0813H60.7698V5.44556H47.7898Z" fill="#EDEFF2"/>
<path d="M47.7898 5.44556V19.0813H58.6301V5.44556H47.7898Z" fill="#E1E2E6"/>
<path d="M54.5707 19.083H47.7928V10.8994H54.5707V19.083Z" fill="#D5D6D9"/>
<path d="M47.7898 13.6355V19.0813H66.2678V13.6355H47.7898Z" fill="#EDEFF2"/>
<path d="M47.7898 13.6355V19.0813H60.7698V13.6355H47.7898Z" fill="#E1E2E6"/>
<path d="M47.7898 13.6355V19.0813H58.6301V13.6355H47.7898Z" fill="#D5D6D9"/>
<path d="M47.7898 13.6355V19.0813H54.5774V13.6355H47.7898Z" fill="#BBBCBF"/>
<path d="M40.476 6.16285C38.6267 6.49273 37.6404 7.89474 37.6404 10.3276C37.6404 12.8018 38.9555 14.4512 40.8869 14.4512C41.8321 14.4512 42.654 14.1213 44.38 13.2553C44.38 15.2759 44.38 15.2759 44.38 15.2759C42.2841 16.2655 41.0513 16.513 39.4075 16.513C37.5582 16.513 36.2432 16.0594 35.2158 14.946C34.1473 13.8739 33.572 12.4719 33.572 10.8637C33.572 7.35868 36.2021 4.92578 40.0239 4.92578C42.5307 4.92578 44.2978 6.12161 44.2978 7.81227C44.2978 8.92562 43.4759 9.7091 42.2841 9.7091C41.6677 9.7091 41.1746 9.50292 40.476 9.1318" fill="#BBBCBF"/>
<path d="M31.2297 10.8637C32.9146 8.76067 33.531 7.89473 33.531 6.86385C33.531 5.83296 32.7091 4.92578 31.5585 4.92578C30.901 4.92578 30.2845 5.2969 29.9969 5.62678C29.9969 9.9565 29.9969 9.9565 29.9969 9.9565C27.2435 13.6677 27.2435 13.6677 27.2435 13.6677C27.2435 5.25566 27.2435 5.25566 27.2435 5.25566C24.6134 5.25566 24.6134 5.25566 24.6134 5.25566C20.2574 12.4719 20.2574 12.4719 20.2574 12.4719C20.2574 5.25566 20.2574 5.25566 20.2574 5.25566C18.778 5.25566 18.778 5.25566 18.778 5.25566C14.7917 6.16284 14.7917 6.16284 14.7917 6.16284C14.7917 7.19373 14.7917 7.19373 14.7917 7.19373C16.9698 7.39991 16.9698 7.39991 16.9698 7.39991C16.9698 16.348 16.9698 16.348 16.9698 16.348C19.7231 16.348 19.7231 16.348 19.7231 16.348C23.9148 9.42044 23.9148 9.42044 23.9148 9.42044C23.9148 16.348 23.9148 16.348 23.9148 16.348C26.9969 16.348 26.9969 16.348 26.9969 16.348" fill="#BBBCBF"/>
<path d="M6.44939 14.946C6.77815 14.946 6.86034 14.946 7.06581 14.946C9.28494 14.946 10.5178 13.5853 10.5178 10.8637C10.5178 8.59578 9.53151 7.35872 7.68224 7.35872C7.43567 7.35872 7.06581 7.39996 6.44939 7.52366V14.946ZM6.44939 19.8118C8.25757 20.2242 8.25757 20.2242 8.25757 20.2242C8.25757 21.2551 8.25757 21.2551 8.25757 21.2551C1.14814 21.2551 1.14814 21.2551 1.14814 21.2551C1.14814 20.2242 1.14814 20.2242 1.14814 20.2242C2.79194 19.8118 2.79194 19.8118 2.79194 19.8118C2.79194 7.35872 2.79194 7.35872 2.79194 7.35872C0.983764 7.35872 0.983765 7.35872 0.983765 7.35872C0.983765 6.32783 0.983765 6.32783 0.983765 6.32783C5.29873 5.0083 5.29873 5.0083 5.29873 5.0083C6.44939 5.0083 6.44939 5.0083 6.44939 5.0083C6.44939 6.49278 6.44939 6.49278 6.44939 6.49278C8.46304 5.25571 9.16166 5.04954 10.2301 5.04954C12.6136 5.04954 14.4218 7.27625 14.4218 10.3689C14.4218 13.9152 11.9972 16.348 8.29866 16.348C7.88771 16.348 7.1891 16.3068 6.44939 16.2656" fill="#BBBCBF"/>
</g>
<defs>
<clipPath id="clip0_1601_24969">
<rect width="68.0162" height="21.6415" fill="white" transform="translate(0.983765)"/>
</clipPath>
</defs>
</svg>
